%TF.GenerationSoftware,KiCad,Pcbnew,9.0.3*%
%TF.CreationDate,2025-11-05T19:32:31+02:00*%
%TF.ProjectId,PCB_Design,5043425f-4465-4736-9967-6e2e6b696361,rev?*%
%TF.SameCoordinates,Original*%
%TF.FileFunction,Copper,L1,Top*%
%TF.FilePolarity,Positive*%
%FSLAX46Y46*%
G04 Gerber Fmt 4.6, Leading zero omitted, Abs format (unit mm)*
G04 Created by KiCad (PCBNEW 9.0.3) date 2025-11-05 19:32:31*
%MOMM*%
%LPD*%
G01*
G04 APERTURE LIST*
G04 Aperture macros list*
%AMRoundRect*
0 Rectangle with rounded corners*
0 $1 Rounding radius*
0 $2 $3 $4 $5 $6 $7 $8 $9 X,Y pos of 4 corners*
0 Add a 4 corners polygon primitive as box body*
4,1,4,$2,$3,$4,$5,$6,$7,$8,$9,$2,$3,0*
0 Add four circle primitives for the rounded corners*
1,1,$1+$1,$2,$3*
1,1,$1+$1,$4,$5*
1,1,$1+$1,$6,$7*
1,1,$1+$1,$8,$9*
0 Add four rect primitives between the rounded corners*
20,1,$1+$1,$2,$3,$4,$5,0*
20,1,$1+$1,$4,$5,$6,$7,0*
20,1,$1+$1,$6,$7,$8,$9,0*
20,1,$1+$1,$8,$9,$2,$3,0*%
G04 Aperture macros list end*
%TA.AperFunction,NonConductor*%
%ADD10C,0.200000*%
%TD*%
%TA.AperFunction,ComponentPad*%
%ADD11R,1.350000X1.350000*%
%TD*%
%TA.AperFunction,SMDPad,CuDef*%
%ADD12R,1.000000X1.000000*%
%TD*%
%TA.AperFunction,SMDPad,CuDef*%
%ADD13RoundRect,0.135000X0.135000X0.185000X-0.135000X0.185000X-0.135000X-0.185000X0.135000X-0.185000X0*%
%TD*%
%TA.AperFunction,SMDPad,CuDef*%
%ADD14RoundRect,0.140000X-0.140000X-0.170000X0.140000X-0.170000X0.140000X0.170000X-0.140000X0.170000X0*%
%TD*%
%TA.AperFunction,SMDPad,CuDef*%
%ADD15RoundRect,0.135000X-0.135000X-0.185000X0.135000X-0.185000X0.135000X0.185000X-0.135000X0.185000X0*%
%TD*%
%TA.AperFunction,SMDPad,CuDef*%
%ADD16RoundRect,0.140000X0.170000X-0.140000X0.170000X0.140000X-0.170000X0.140000X-0.170000X-0.140000X0*%
%TD*%
%TA.AperFunction,SMDPad,CuDef*%
%ADD17RoundRect,0.140000X0.140000X0.170000X-0.140000X0.170000X-0.140000X-0.170000X0.140000X-0.170000X0*%
%TD*%
%TA.AperFunction,SMDPad,CuDef*%
%ADD18RoundRect,0.140000X-0.170000X0.140000X-0.170000X-0.140000X0.170000X-0.140000X0.170000X0.140000X0*%
%TD*%
%TA.AperFunction,SMDPad,CuDef*%
%ADD19RoundRect,0.150000X-0.150000X0.587500X-0.150000X-0.587500X0.150000X-0.587500X0.150000X0.587500X0*%
%TD*%
%TA.AperFunction,ComponentPad*%
%ADD20C,5.000000*%
%TD*%
%TA.AperFunction,SMDPad,CuDef*%
%ADD21RoundRect,0.135000X-0.185000X0.135000X-0.185000X-0.135000X0.185000X-0.135000X0.185000X0.135000X0*%
%TD*%
%TA.AperFunction,ComponentPad*%
%ADD22RoundRect,0.249999X-0.850001X-0.850001X0.850001X-0.850001X0.850001X0.850001X-0.850001X0.850001X0*%
%TD*%
%TA.AperFunction,ComponentPad*%
%ADD23C,2.200000*%
%TD*%
%TA.AperFunction,ComponentPad*%
%ADD24R,2.000000X1.905000*%
%TD*%
%TA.AperFunction,ComponentPad*%
%ADD25O,2.000000X1.905000*%
%TD*%
%TA.AperFunction,SMDPad,CuDef*%
%ADD26RoundRect,0.250000X0.550000X-0.850000X0.550000X0.850000X-0.550000X0.850000X-0.550000X-0.850000X0*%
%TD*%
%TA.AperFunction,ComponentPad*%
%ADD27RoundRect,0.249999X0.850001X0.850001X-0.850001X0.850001X-0.850001X-0.850001X0.850001X-0.850001X0*%
%TD*%
%TA.AperFunction,SMDPad,CuDef*%
%ADD28RoundRect,0.075000X-0.662500X-0.075000X0.662500X-0.075000X0.662500X0.075000X-0.662500X0.075000X0*%
%TD*%
%TA.AperFunction,SMDPad,CuDef*%
%ADD29RoundRect,0.075000X-0.075000X-0.662500X0.075000X-0.662500X0.075000X0.662500X-0.075000X0.662500X0*%
%TD*%
%TA.AperFunction,ComponentPad*%
%ADD30R,0.850000X0.850000*%
%TD*%
%TA.AperFunction,ComponentPad*%
%ADD31C,0.850000*%
%TD*%
%TA.AperFunction,ComponentPad*%
%ADD32R,1.905000X2.000000*%
%TD*%
%TA.AperFunction,ComponentPad*%
%ADD33O,1.905000X2.000000*%
%TD*%
%TA.AperFunction,ViaPad*%
%ADD34C,0.600000*%
%TD*%
%TA.AperFunction,Conductor*%
%ADD35C,0.200000*%
%TD*%
G04 APERTURE END LIST*
D10*
X177500000Y-79000000D02*
G75*
G02*
X179500000Y-81000000I0J-2000000D01*
G01*
X179500000Y-185500000D02*
G75*
G02*
X177500000Y-187500000I-2000000J0D01*
G01*
X68500000Y-81000000D02*
G75*
G02*
X70500000Y-79000000I2000000J0D01*
G01*
X70500000Y-187500000D02*
G75*
G02*
X68500000Y-185500000I0J2000000D01*
G01*
D11*
%TO.P,J5,1,Pin_1*%
%TO.N,Net-(J5-Pin_1)*%
X81500000Y-152000000D03*
%TD*%
%TO.P,J27,1,Pin_1*%
%TO.N,Net-(J27-Pin_1)*%
X81500000Y-131000000D03*
%TD*%
D12*
%TO.P,TP28,1,1*%
%TO.N,AVSS*%
X116500000Y-157000000D03*
%TD*%
D11*
%TO.P,J19,1,Pin_1*%
%TO.N,Net-(J19-Pin_1)*%
X81500000Y-149000000D03*
%TD*%
D13*
%TO.P,R5,1*%
%TO.N,BIAS_INV*%
X110510000Y-130500000D03*
%TO.P,R5,2*%
%TO.N,BIAS_OUT*%
X109490000Y-130500000D03*
%TD*%
D14*
%TO.P,C15,1*%
%TO.N,AVDD*%
X112520000Y-130000000D03*
%TO.P,C15,2*%
%TO.N,AVSS*%
X113480000Y-130000000D03*
%TD*%
D11*
%TO.P,J9,1,Pin_1*%
%TO.N,MOSI*%
X162500000Y-155000000D03*
%TD*%
%TO.P,J10,1,Pin_1*%
%TO.N,CSI*%
X162500000Y-137000000D03*
%TD*%
D15*
%TO.P,R14,1*%
%TO.N,Net-(J20-Pin_1)*%
X85500000Y-140000000D03*
%TO.P,R14,2*%
%TO.N,/IN-*%
X86520000Y-140000000D03*
%TD*%
D12*
%TO.P,TP2,1,1*%
%TO.N,DGND*%
X126000000Y-150500000D03*
%TD*%
D16*
%TO.P,C22,1*%
%TO.N,/IN+*%
X99500000Y-133960000D03*
%TO.P,C22,2*%
%TO.N,/IN-*%
X99500000Y-133000000D03*
%TD*%
D15*
%TO.P,R22,1*%
%TO.N,Net-(J29-Pin_1)*%
X85490000Y-125000000D03*
%TO.P,R22,2*%
%TO.N,/IN+*%
X86510000Y-125000000D03*
%TD*%
D11*
%TO.P,J31,1,Pin_1*%
%TO.N,Net-(J31-Pin_1)*%
X81500000Y-119000000D03*
%TD*%
D17*
%TO.P,C13,1*%
%TO.N,AVSS*%
X115980000Y-153000000D03*
%TO.P,C13,2*%
%TO.N,Net-(U1-VREFP)*%
X115020000Y-153000000D03*
%TD*%
D11*
%TO.P,J28,1,Pin_1*%
%TO.N,Net-(J28-Pin_1)*%
X81500000Y-122000000D03*
%TD*%
D16*
%TO.P,C10,1*%
%TO.N,AVSS*%
X117500000Y-152960000D03*
%TO.P,C10,2*%
%TO.N,Net-(U1-VCAP4)*%
X117500000Y-152000000D03*
%TD*%
D18*
%TO.P,C1,1*%
%TO.N,/IN-*%
X99500000Y-151000000D03*
%TO.P,C1,2*%
%TO.N,/IN+*%
X99500000Y-151960000D03*
%TD*%
D19*
%TO.P,Q2,1,G*%
%TO.N,Net-(D2-A)*%
X160000000Y-103040000D03*
%TO.P,Q2,2,S*%
%TO.N,Net-(D2-K)*%
X158100000Y-103040000D03*
%TO.P,Q2,3,D*%
%TO.N,+3.7V*%
X159050000Y-104915000D03*
%TD*%
D20*
%TO.P,REF\u002A\u002A,1*%
%TO.N,N/C*%
X177000000Y-81500000D03*
%TD*%
D11*
%TO.P,J26,1,Pin_1*%
%TO.N,Net-(J26-Pin_1)*%
X81500000Y-128000000D03*
%TD*%
D15*
%TO.P,R12,1*%
%TO.N,Net-(J18-Pin_1)*%
X85490000Y-146000000D03*
%TO.P,R12,2*%
%TO.N,/IN-*%
X86510000Y-146000000D03*
%TD*%
D11*
%TO.P,J8,1,Pin_1*%
%TO.N,SCLK*%
X162500000Y-134000000D03*
%TD*%
D17*
%TO.P,C5,1*%
%TO.N,AVSS*%
X113500000Y-152000000D03*
%TO.P,C5,2*%
%TO.N,/Regulator_5V*%
X112540000Y-152000000D03*
%TD*%
D11*
%TO.P,J15,1,Pin_1*%
%TO.N,DVDD*%
X162500000Y-152000000D03*
%TD*%
D12*
%TO.P,TP17,1,1*%
%TO.N,+7.5V*%
X118000000Y-88500000D03*
%TD*%
D15*
%TO.P,R3,1*%
%TO.N,Net-(U1-GPIO1)*%
X146000000Y-142500000D03*
%TO.P,R3,2*%
%TO.N,DGND*%
X147020000Y-142500000D03*
%TD*%
D16*
%TO.P,C4,1*%
%TO.N,/IN+*%
X99500000Y-146960000D03*
%TO.P,C4,2*%
%TO.N,/IN-*%
X99500000Y-146000000D03*
%TD*%
D21*
%TO.P,R7,1*%
%TO.N,Net-(D2-A)*%
X164000000Y-115520000D03*
%TO.P,R7,2*%
%TO.N,DGND*%
X164000000Y-116540000D03*
%TD*%
D20*
%TO.P,REF\u002A\u002A,1*%
%TO.N,N/C*%
X70500000Y-81000000D03*
%TD*%
D11*
%TO.P,J21,1,Pin_1*%
%TO.N,Net-(J21-Pin_1)*%
X81500000Y-143000000D03*
%TD*%
D15*
%TO.P,R1,1*%
%TO.N,Net-(U1-GPIO4)*%
X145970000Y-137500000D03*
%TO.P,R1,2*%
%TO.N,DGND*%
X146990000Y-137500000D03*
%TD*%
D11*
%TO.P,J22,1,Pin_1*%
%TO.N,Net-(J22-Pin_1)*%
X81500000Y-134000000D03*
%TD*%
D16*
%TO.P,C20,1*%
%TO.N,/IN+*%
X99500000Y-139440000D03*
%TO.P,C20,2*%
%TO.N,/IN-*%
X99500000Y-138480000D03*
%TD*%
%TO.P,C19,1*%
%TO.N,/IN+*%
X99500000Y-141940000D03*
%TO.P,C19,2*%
%TO.N,/IN-*%
X99500000Y-140980000D03*
%TD*%
D11*
%TO.P,J30,1,Pin_1*%
%TO.N,Net-(J30-Pin_1)*%
X81500000Y-116000000D03*
%TD*%
D17*
%TO.P,C16,1*%
%TO.N,/Regulator_3.3V*%
X121500000Y-132000000D03*
%TO.P,C16,2*%
%TO.N,DGND*%
X120540000Y-132000000D03*
%TD*%
D11*
%TO.P,J1,1,Pin_1*%
%TO.N,Net-(J1-Pin_1)*%
X81500000Y-161000000D03*
%TD*%
D22*
%TO.P,D2,1,K*%
%TO.N,Net-(D2-K)*%
X153970000Y-109477500D03*
D23*
%TO.P,D2,2,A*%
%TO.N,Net-(D2-A)*%
X164130000Y-109477500D03*
%TD*%
D21*
%TO.P,R6,1*%
%TO.N,Net-(D1-A)*%
X149000000Y-95040000D03*
%TO.P,R6,2*%
%TO.N,AVSS*%
X149000000Y-96060000D03*
%TD*%
D12*
%TO.P,TP1,1,1*%
%TO.N,+3.7V*%
X123000000Y-94000000D03*
%TD*%
D24*
%TO.P,U3,1,GND*%
%TO.N,DGND*%
X150000000Y-115580000D03*
D25*
%TO.P,U3,2,VO*%
%TO.N,DVDD*%
X150000000Y-113040000D03*
%TO.P,U3,3,VI*%
%TO.N,Net-(D2-K)*%
X150000000Y-110500000D03*
%TD*%
D15*
%TO.P,R13,1*%
%TO.N,Net-(J19-Pin_1)*%
X85490000Y-149000000D03*
%TO.P,R13,2*%
%TO.N,/IN+*%
X86510000Y-149000000D03*
%TD*%
%TO.P,R4,1*%
%TO.N,Net-(U1-GPIO3)*%
X145980000Y-139000000D03*
%TO.P,R4,2*%
%TO.N,DGND*%
X147000000Y-139000000D03*
%TD*%
D26*
%TO.P,C17,1*%
%TO.N,AVSS*%
X156500000Y-96540000D03*
%TO.P,C17,2*%
%TO.N,Net-(D1-K)*%
X156500000Y-93540000D03*
%TD*%
D16*
%TO.P,C7,1*%
%TO.N,AVSS*%
X119000000Y-152960000D03*
%TO.P,C7,2*%
%TO.N,Net-(U1-VCAP1)*%
X119000000Y-152000000D03*
%TD*%
D20*
%TO.P,REF\u002A\u002A,1*%
%TO.N,N/C*%
X177500000Y-185500000D03*
%TD*%
D12*
%TO.P,TP20,1,1*%
%TO.N,DVDD*%
X143500000Y-113000000D03*
%TD*%
D26*
%TO.P,C18,1*%
%TO.N,DGND*%
X159500000Y-118040000D03*
%TO.P,C18,2*%
%TO.N,Net-(D2-K)*%
X159500000Y-115040000D03*
%TD*%
D16*
%TO.P,C8,1*%
%TO.N,AVSS*%
X120500000Y-152960000D03*
%TO.P,C8,2*%
%TO.N,Net-(U1-VCAP2)*%
X120500000Y-152000000D03*
%TD*%
%TO.P,C21,1*%
%TO.N,/IN+*%
X99500000Y-136980000D03*
%TO.P,C21,2*%
%TO.N,/IN-*%
X99500000Y-136020000D03*
%TD*%
D11*
%TO.P,J17,1,Pin_1*%
%TO.N,Net-(J17-Pin_1)*%
X81500000Y-155000000D03*
%TD*%
D15*
%TO.P,R18,1*%
%TO.N,Net-(J28-Pin_1)*%
X85490000Y-122000000D03*
%TO.P,R18,2*%
%TO.N,/IN-*%
X86510000Y-122000000D03*
%TD*%
D18*
%TO.P,C4,1*%
%TO.N,DGND*%
X123000000Y-135520000D03*
%TO.P,C4,2*%
%TO.N,DVDD*%
X123000000Y-136480000D03*
%TD*%
D11*
%TO.P,J7,1,Pin_1*%
%TO.N,SRB1*%
X81500000Y-165500000D03*
%TD*%
D15*
%TO.P,R20,1*%
%TO.N,Net-(J25-Pin_1)*%
X85490000Y-137000000D03*
%TO.P,R20,2*%
%TO.N,/IN+*%
X86510000Y-137000000D03*
%TD*%
D11*
%TO.P,J12,1,Pin_1*%
%TO.N,CLK*%
X162500000Y-143000000D03*
%TD*%
D16*
%TO.P,C2,1*%
%TO.N,/IN+*%
X99500000Y-149460000D03*
%TO.P,C2,2*%
%TO.N,/IN-*%
X99500000Y-148500000D03*
%TD*%
D11*
%TO.P,J24,1,Pin_1*%
%TO.N,Net-(J24-Pin_1)*%
X81500000Y-158000000D03*
%TD*%
D15*
%TO.P,R17,1*%
%TO.N,Net-(J26-Pin_1)*%
X85480000Y-128000000D03*
%TO.P,R17,2*%
%TO.N,/IN-*%
X86500000Y-128000000D03*
%TD*%
D27*
%TO.P,D1,1,K*%
%TO.N,Net-(D1-K)*%
X158580000Y-89040000D03*
D23*
%TO.P,D1,2,A*%
%TO.N,Net-(D1-A)*%
X148420000Y-89040000D03*
%TD*%
D20*
%TO.P,REF\u002A\u002A,1*%
%TO.N,N/C*%
X70500000Y-185500000D03*
%TD*%
D11*
%TO.P,J16,1,Pin_1*%
%TO.N,RESET*%
X162500000Y-146000000D03*
%TD*%
D18*
%TO.P,C9,1*%
%TO.N,AVSS*%
X115500000Y-128000000D03*
%TO.P,C9,2*%
%TO.N,Net-(U1-VCAP3)*%
X115500000Y-128960000D03*
%TD*%
%TO.P,C3,1*%
%TO.N,/Regulator_5V*%
X111500000Y-150020000D03*
%TO.P,C3,2*%
%TO.N,AVSS*%
X111500000Y-150980000D03*
%TD*%
D11*
%TO.P,J13,1,Pin_1*%
%TO.N,DVDD*%
X162500000Y-149000000D03*
%TD*%
D15*
%TO.P,R16,1*%
%TO.N,Net-(J22-Pin_1)*%
X85490000Y-134000000D03*
%TO.P,R16,2*%
%TO.N,/IN-*%
X86510000Y-134000000D03*
%TD*%
D11*
%TO.P,J29,1,Pin_1*%
%TO.N,Net-(J29-Pin_1)*%
X81500000Y-125000000D03*
%TD*%
D12*
%TO.P,TP19,1,1*%
%TO.N,AVDD*%
X163500000Y-99500000D03*
%TD*%
D11*
%TO.P,J4,1,Pin_1*%
%TO.N,BIAS_OUT*%
X81500000Y-112500000D03*
%TD*%
D14*
%TO.P,C2,1*%
%TO.N,AVDD*%
X116540000Y-132000000D03*
%TO.P,C2,2*%
%TO.N,AVSS*%
X117500000Y-132000000D03*
%TD*%
D11*
%TO.P,J6,1,Pin_1*%
%TO.N,SRB2*%
X81500000Y-168550000D03*
%TD*%
%TO.P,J14,1,Pin_1*%
%TO.N,DRDY*%
X162500000Y-128000000D03*
%TD*%
D15*
%TO.P,R11,1*%
%TO.N,Net-(J17-Pin_1)*%
X85480000Y-155000000D03*
%TO.P,R11,2*%
%TO.N,/IN+*%
X86500000Y-155000000D03*
%TD*%
D28*
%TO.P,U1,1,IN8N*%
%TO.N,/IN-*%
X109000000Y-137500000D03*
%TO.P,U1,2,IN8P*%
%TO.N,/IN+*%
X109000000Y-138000000D03*
%TO.P,U1,3,IN7N*%
%TO.N,/IN-*%
X109000000Y-138500000D03*
%TO.P,U1,4,IN7P*%
%TO.N,/IN+*%
X109000000Y-139000000D03*
%TO.P,U1,5,IN6N*%
%TO.N,/IN-*%
X109000000Y-139500000D03*
%TO.P,U1,6,IN6P*%
%TO.N,/IN+*%
X109000000Y-140000000D03*
%TO.P,U1,7,IN5N*%
%TO.N,/IN-*%
X109000000Y-140500000D03*
%TO.P,U1,8,IN5P*%
%TO.N,/IN+*%
X109000000Y-141000000D03*
%TO.P,U1,9,IN4N*%
%TO.N,/IN-*%
X109000000Y-141500000D03*
%TO.P,U1,10,IN4P*%
%TO.N,/IN+*%
X109000000Y-142000000D03*
%TO.P,U1,11,IN3N*%
%TO.N,/IN-*%
X109000000Y-142500000D03*
%TO.P,U1,12,IN3P*%
%TO.N,/IN+*%
X109000000Y-143000000D03*
%TO.P,U1,13,IN2N*%
%TO.N,/IN-*%
X109000000Y-143500000D03*
%TO.P,U1,14,IN2P*%
%TO.N,/IN+*%
X109000000Y-144000000D03*
%TO.P,U1,15,IN1N*%
%TO.N,/IN-*%
X109000000Y-144500000D03*
%TO.P,U1,16,IN1P*%
%TO.N,/IN+*%
X109000000Y-145000000D03*
D29*
%TO.P,U1,17,SRB1*%
%TO.N,SRB1*%
X110912500Y-146912500D03*
%TO.P,U1,18,SRB2*%
%TO.N,SRB2*%
X111412500Y-146912500D03*
%TO.P,U1,19,AVDD*%
%TO.N,Net-(U1-AVDD-Pad19)*%
X111912500Y-146912500D03*
%TO.P,U1,20,AVSS*%
%TO.N,AVSS*%
X112412500Y-146912500D03*
%TO.P,U1,21,AVDD*%
%TO.N,Net-(U1-AVDD-Pad19)*%
X112912500Y-146912500D03*
%TO.P,U1,22,AVDD*%
X113412500Y-146912500D03*
%TO.P,U1,23,AVSS*%
%TO.N,AVSS*%
X113912500Y-146912500D03*
%TO.P,U1,24,VREFP*%
%TO.N,Net-(U1-VREFP)*%
X114412500Y-146912500D03*
%TO.P,U1,25,VREFN*%
%TO.N,AVSS*%
X114912500Y-146912500D03*
%TO.P,U1,26,VCAP4*%
%TO.N,Net-(U1-VCAP4)*%
X115412500Y-146912500D03*
%TO.P,U1,27,NC*%
%TO.N,unconnected-(U1-NC-Pad27)*%
X115912500Y-146912500D03*
%TO.P,U1,28,VCAP1*%
%TO.N,Net-(U1-VCAP1)*%
X116412500Y-146912500D03*
%TO.P,U1,29,NC*%
%TO.N,unconnected-(U1-NC-Pad29)*%
X116912500Y-146912500D03*
%TO.P,U1,30,VCAP2*%
%TO.N,Net-(U1-VCAP2)*%
X117412500Y-146912500D03*
%TO.P,U1,31,RESV1*%
%TO.N,DGND*%
X117912500Y-146912500D03*
%TO.P,U1,32,AVSS*%
%TO.N,AVSS*%
X118412500Y-146912500D03*
D28*
%TO.P,U1,33,DGND*%
%TO.N,DGND*%
X120325000Y-145000000D03*
%TO.P,U1,34,DIN*%
%TO.N,MOSI*%
X120325000Y-144500000D03*
%TO.P,U1,35,~{PWDN}*%
%TO.N,DVDD*%
X120325000Y-144000000D03*
%TO.P,U1,36,~{RESET}*%
%TO.N,RESET*%
X120325000Y-143500000D03*
%TO.P,U1,37,CLK*%
%TO.N,CLK*%
X120325000Y-143000000D03*
%TO.P,U1,38,START*%
%TO.N,START*%
X120325000Y-142500000D03*
%TO.P,U1,39,~{CS}*%
%TO.N,CSI*%
X120325000Y-142000000D03*
%TO.P,U1,40,SCLK*%
%TO.N,SCLK*%
X120325000Y-141500000D03*
%TO.P,U1,41,DAISY_IN*%
%TO.N,DGND*%
X120325000Y-141000000D03*
%TO.P,U1,42,GPIO1*%
%TO.N,Net-(U1-GPIO1)*%
X120325000Y-140500000D03*
%TO.P,U1,43,DOUT*%
%TO.N,MISO*%
X120325000Y-140000000D03*
%TO.P,U1,44,GPIO2*%
%TO.N,Net-(U1-GPIO2)*%
X120325000Y-139500000D03*
%TO.P,U1,45,GPIO3*%
%TO.N,Net-(U1-GPIO3)*%
X120325000Y-139000000D03*
%TO.P,U1,46,GPIO4*%
%TO.N,Net-(U1-GPIO4)*%
X120325000Y-138500000D03*
%TO.P,U1,47,~{DRDY}*%
%TO.N,DRDY*%
X120325000Y-138000000D03*
%TO.P,U1,48,DVDD*%
%TO.N,/Regulator_3.3V*%
X120325000Y-137500000D03*
D29*
%TO.P,U1,49,DGND*%
%TO.N,DGND*%
X118412500Y-135587500D03*
%TO.P,U1,50,DVDD*%
%TO.N,/Regulator_3.3V*%
X117912500Y-135587500D03*
%TO.P,U1,51,DGND*%
%TO.N,DGND*%
X117412500Y-135587500D03*
%TO.P,U1,52,CLKSEL*%
%TO.N,DVDD*%
X116912500Y-135587500D03*
%TO.P,U1,53,AVSS1*%
%TO.N,AVSS*%
X116412500Y-135587500D03*
%TO.P,U1,54,AVDD1*%
%TO.N,unconnected-(U1-AVDD1-Pad54)*%
X115912500Y-135587500D03*
%TO.P,U1,55,VCAP3*%
%TO.N,Net-(U1-VCAP3)*%
X115412500Y-135587500D03*
%TO.P,U1,56,AVDD*%
%TO.N,Net-(U1-AVDD-Pad19)*%
X114912500Y-135587500D03*
%TO.P,U1,57,AVSS*%
%TO.N,AVSS*%
X114412500Y-135587500D03*
%TO.P,U1,58,AVSS*%
X113912500Y-135587500D03*
%TO.P,U1,59,AVDD*%
%TO.N,Net-(U1-AVDD-Pad19)*%
X113412500Y-135587500D03*
%TO.P,U1,60,BIASREF*%
%TO.N,AGND*%
X112912500Y-135587500D03*
%TO.P,U1,61,BIASINV*%
%TO.N,BIAS_INV*%
X112412500Y-135587500D03*
%TO.P,U1,62,BIASIN*%
%TO.N,BIAS_OUT*%
X111912500Y-135587500D03*
%TO.P,U1,63,BIASOUT*%
X111412500Y-135587500D03*
%TO.P,U1,64,RESERVED*%
%TO.N,AGND*%
X110912500Y-135587500D03*
%TD*%
D11*
%TO.P,J23,1,Pin_1*%
%TO.N,START*%
X162500000Y-140000000D03*
%TD*%
D15*
%TO.P,R8,1*%
%TO.N,Net-(J1-Pin_1)*%
X85490000Y-161000000D03*
%TO.P,R8,2*%
%TO.N,/IN+*%
X86510000Y-161000000D03*
%TD*%
%TO.P,R10,1*%
%TO.N,Net-(J5-Pin_1)*%
X85500000Y-152000000D03*
%TO.P,R10,2*%
%TO.N,/IN-*%
X86520000Y-152000000D03*
%TD*%
D14*
%TO.P,C14,1*%
%TO.N,Net-(U1-VREFP)*%
X115020000Y-151500000D03*
%TO.P,C14,2*%
%TO.N,AVSS*%
X115980000Y-151500000D03*
%TD*%
D15*
%TO.P,R21,1*%
%TO.N,Net-(J27-Pin_1)*%
X85490000Y-131000000D03*
%TO.P,R21,2*%
%TO.N,/IN+*%
X86510000Y-131000000D03*
%TD*%
D30*
%TO.P,J3,1,Pin_1*%
%TO.N,+7.5V*%
X114500000Y-89500000D03*
D31*
%TO.P,J3,2,Pin_2*%
%TO.N,AVSS*%
X113500000Y-89500000D03*
%TD*%
D11*
%TO.P,J20,1,Pin_1*%
%TO.N,Net-(J20-Pin_1)*%
X81500000Y-140000000D03*
%TD*%
D16*
%TO.P,C11,1*%
%TO.N,Net-(U1-VCAP3)*%
X117000000Y-128960000D03*
%TO.P,C11,2*%
%TO.N,AVSS*%
X117000000Y-128000000D03*
%TD*%
D17*
%TO.P,C12,1*%
%TO.N,BIAS_INV*%
X110480000Y-124500000D03*
%TO.P,C12,2*%
%TO.N,BIAS_OUT*%
X109520000Y-124500000D03*
%TD*%
D30*
%TO.P,J2,1,Pin_1*%
%TO.N,+3.7V*%
X124000000Y-89500000D03*
D31*
%TO.P,J2,2,Pin_2*%
%TO.N,DGND*%
X125000000Y-89500000D03*
%TD*%
D16*
%TO.P,C15,1*%
%TO.N,/IN+*%
X99500000Y-144460000D03*
%TO.P,C15,2*%
%TO.N,/IN-*%
X99500000Y-143500000D03*
%TD*%
D11*
%TO.P,J25,1,Pin_1*%
%TO.N,Net-(J25-Pin_1)*%
X81500000Y-137000000D03*
%TD*%
D24*
%TO.P,U2,1,VI*%
%TO.N,Net-(D1-K)*%
X163500000Y-89960000D03*
D25*
%TO.P,U2,2,GND*%
%TO.N,AVSS*%
X163500000Y-92500000D03*
%TO.P,U2,3,VO*%
%TO.N,AVDD*%
X163500000Y-95040000D03*
%TD*%
D15*
%TO.P,R2,1*%
%TO.N,Net-(U1-GPIO2)*%
X145990000Y-140500000D03*
%TO.P,R2,2*%
%TO.N,DGND*%
X147010000Y-140500000D03*
%TD*%
D11*
%TO.P,J18,1,Pin_1*%
%TO.N,Net-(J18-Pin_1)*%
X81500000Y-146000000D03*
%TD*%
D32*
%TO.P,Q1,1,G*%
%TO.N,Net-(D1-A)*%
X150000000Y-84540000D03*
D33*
%TO.P,Q1,2,D*%
%TO.N,+7.5V*%
X152540000Y-84540000D03*
%TO.P,Q1,3,S*%
%TO.N,Net-(D1-K)*%
X155080000Y-84540000D03*
%TD*%
D15*
%TO.P,R15,1*%
%TO.N,Net-(J21-Pin_1)*%
X85500000Y-143000000D03*
%TO.P,R15,2*%
%TO.N,/IN+*%
X86520000Y-143000000D03*
%TD*%
%TO.P,R23,1*%
%TO.N,Net-(J31-Pin_1)*%
X85490000Y-119000000D03*
%TO.P,R23,2*%
%TO.N,/IN+*%
X86510000Y-119000000D03*
%TD*%
%TO.P,R19,1*%
%TO.N,Net-(J30-Pin_1)*%
X85480000Y-116000000D03*
%TO.P,R19,2*%
%TO.N,/IN-*%
X86500000Y-116000000D03*
%TD*%
D11*
%TO.P,J11,1,Pin_1*%
%TO.N,MISO*%
X162500000Y-131000000D03*
%TD*%
D15*
%TO.P,R9,1*%
%TO.N,Net-(J24-Pin_1)*%
X85510000Y-158000000D03*
%TO.P,R9,2*%
%TO.N,/IN-*%
X86530000Y-158000000D03*
%TD*%
D34*
%TO.N,AVDD*%
X117000000Y-122500000D03*
X115000000Y-161000000D03*
%TO.N,AVSS*%
X113500000Y-127500000D03*
X146000000Y-96000000D03*
X119500000Y-148000000D03*
X118500000Y-131000000D03*
X115500000Y-126500000D03*
X114000000Y-154500000D03*
X111500000Y-152500000D03*
%TO.N,DGND*%
X121500000Y-130500000D03*
X148500000Y-137500000D03*
X143000000Y-143500000D03*
X148500000Y-139000000D03*
X122500000Y-147000000D03*
X148500000Y-142500000D03*
X148500000Y-140500000D03*
X126000000Y-135500000D03*
%TO.N,+3.7V*%
X159000000Y-100500000D03*
%TD*%
D35*
%TO.N,DVDD*%
X116912500Y-134134600D02*
X118047100Y-133000000D01*
X126520000Y-136480000D02*
X128000000Y-135000000D01*
X150000000Y-113040000D02*
X140460000Y-113040000D01*
X118047100Y-133000000D02*
X119500000Y-131547100D01*
X137000000Y-149500000D02*
X151500000Y-149500000D01*
X121000000Y-129000000D02*
X126000000Y-129000000D01*
X120325000Y-144000000D02*
X124500000Y-144000000D01*
X134000000Y-146500000D02*
X137000000Y-149500000D01*
X119500000Y-131000000D02*
X119500000Y-130500000D01*
X140460000Y-113040000D02*
X132500000Y-121000000D01*
X127000000Y-146500000D02*
X134000000Y-146500000D01*
X124500000Y-144000000D02*
X127000000Y-146500000D01*
X151500000Y-149500000D02*
X152000000Y-149000000D01*
X162500000Y-149000000D02*
X162500000Y-152000000D01*
X123000000Y-136480000D02*
X126520000Y-136480000D01*
X120750000Y-129250000D02*
X121000000Y-129000000D01*
X132500000Y-121000000D02*
X127000000Y-126500000D01*
X152000000Y-149000000D02*
X162500000Y-149000000D01*
X127000000Y-126500000D02*
X127000000Y-129000000D01*
X116912500Y-135587500D02*
X116912500Y-134134600D01*
X119500000Y-130500000D02*
X120750000Y-129250000D01*
X121980000Y-137500000D02*
X123000000Y-136480000D01*
X128000000Y-135000000D02*
X128000000Y-132500000D01*
X120325000Y-137500000D02*
X121980000Y-137500000D01*
X119500000Y-131547100D02*
X119500000Y-131000000D01*
%TO.N,AVDD*%
X126500000Y-103000000D02*
X115500000Y-114000000D01*
X118000000Y-130000000D02*
X118000000Y-125000000D01*
X112540000Y-150960000D02*
X113000000Y-150500000D01*
X112520000Y-132480000D02*
X112520000Y-130000000D01*
X116520000Y-133000000D02*
X116520000Y-132130057D01*
X114912500Y-135587500D02*
X114912500Y-129912500D01*
X112540000Y-158040000D02*
X113750000Y-159250000D01*
X163500000Y-95040000D02*
X161460000Y-95040000D01*
X110500000Y-157500000D02*
X113000000Y-160000000D01*
X114500000Y-126500000D02*
X113500000Y-126500000D01*
X114912500Y-129912500D02*
X114500000Y-129500000D01*
X116520000Y-132130057D02*
X117500000Y-131150057D01*
X161460000Y-95040000D02*
X153500000Y-103000000D01*
X113000000Y-150087500D02*
X113412500Y-149675000D01*
X113412500Y-135587500D02*
X113412500Y-133412500D01*
X136000000Y-103000000D02*
X126500000Y-103000000D01*
X163500000Y-95040000D02*
X163500000Y-99500000D01*
X113500000Y-126500000D02*
X112500000Y-126500000D01*
X112540000Y-150960000D02*
X112540000Y-152000000D01*
X114500000Y-129500000D02*
X114500000Y-126500000D01*
X117500000Y-131150057D02*
X117500000Y-130500000D01*
X112540000Y-152000000D02*
X112540000Y-158040000D01*
X113000000Y-150500000D02*
X113000000Y-150087500D01*
X113500000Y-126500000D02*
X113500000Y-125000000D01*
X112500000Y-132500000D02*
X112520000Y-132480000D01*
X115500000Y-114000000D02*
X115500000Y-123000000D01*
X116520000Y-133000000D02*
X115912500Y-133607500D01*
X112520000Y-126520000D02*
X112520000Y-130000000D01*
X112500000Y-126500000D02*
X112520000Y-126520000D01*
X117500000Y-130500000D02*
X118000000Y-130000000D01*
X115912500Y-133607500D02*
X115912500Y-135587500D01*
X153500000Y-103000000D02*
X136000000Y-103000000D01*
X113412500Y-149675000D02*
X113412500Y-146912500D01*
X113412500Y-133412500D02*
X112500000Y-132500000D01*
X118000000Y-125000000D02*
X117000000Y-124000000D01*
X113500000Y-125000000D02*
X114500000Y-124000000D01*
%TO.N,/Regulator_5V*%
X111500000Y-150020000D02*
X110980000Y-150020000D01*
X111912500Y-149607500D02*
X111912500Y-146912500D01*
X110500000Y-150500000D02*
X110500000Y-154000000D01*
X111500000Y-150020000D02*
X111912500Y-149607500D01*
X110980000Y-150020000D02*
X110500000Y-150500000D01*
X110500000Y-154000000D02*
X110500000Y-157500000D01*
%TO.N,AVSS*%
X115980000Y-151500000D02*
X115980000Y-150480000D01*
X115980000Y-153000000D02*
X117460000Y-153000000D01*
X113500000Y-150154600D02*
X113912500Y-149742100D01*
X114412500Y-133412500D02*
X113500000Y-132500000D01*
X115980000Y-150480000D02*
X114912500Y-149412500D01*
X116412500Y-134067500D02*
X116412500Y-135587500D01*
X114000000Y-156000000D02*
X115000000Y-157000000D01*
X113912500Y-149742100D02*
X113912500Y-146912500D01*
X117500000Y-152960000D02*
X119000000Y-152960000D01*
X115980000Y-153000000D02*
X114480000Y-154500000D01*
X113500000Y-154000000D02*
X114000000Y-154500000D01*
X114912500Y-149412500D02*
X114912500Y-146912500D01*
X115500000Y-128000000D02*
X115500000Y-126500000D01*
X113500000Y-152000000D02*
X113500000Y-150154600D01*
X111500000Y-150980000D02*
X111500000Y-152500000D01*
X117480000Y-133000000D02*
X116412500Y-134067500D01*
X149010000Y-96050000D02*
X149000000Y-96060000D01*
X118412500Y-146912500D02*
X119500000Y-148000000D01*
X115000000Y-157000000D02*
X116500000Y-157000000D01*
X114000000Y-154500000D02*
X114000000Y-156000000D01*
X163500000Y-92500000D02*
X160540000Y-92500000D01*
X112461500Y-146961500D02*
X112412500Y-146912500D01*
X149000000Y-96060000D02*
X156020000Y-96060000D01*
X113500000Y-152000000D02*
X113500000Y-154000000D01*
X113480000Y-131480000D02*
X113480000Y-130000000D01*
X113912500Y-135587500D02*
X114412500Y-135587500D01*
X113480000Y-130000000D02*
X113480000Y-127520000D01*
X118500000Y-131000000D02*
X117480000Y-132020000D01*
X160540000Y-92500000D02*
X156500000Y-96540000D01*
X149000000Y-96060000D02*
X146060000Y-96060000D01*
X111500000Y-150980000D02*
X112412500Y-150067500D01*
X112412500Y-150067500D02*
X112412500Y-146912500D01*
X114480000Y-154500000D02*
X114000000Y-154500000D01*
X113500000Y-132500000D02*
X113500000Y-131500000D01*
X156490000Y-96550000D02*
X156500000Y-96540000D01*
X146060000Y-96060000D02*
X146000000Y-96000000D01*
X117480000Y-132020000D02*
X117480000Y-133000000D01*
X113480000Y-127520000D02*
X113500000Y-127500000D01*
X156020000Y-96060000D02*
X156500000Y-96540000D01*
X119000000Y-152960000D02*
X120500000Y-152960000D01*
X115980000Y-151500000D02*
X115980000Y-153000000D01*
X113500000Y-131500000D02*
X113480000Y-131480000D01*
X114412500Y-135587500D02*
X114412500Y-133412500D01*
X117000000Y-128000000D02*
X115500000Y-128000000D01*
X117460000Y-153000000D02*
X117500000Y-152960000D01*
%TO.N,Net-(U1-VCAP1)*%
X119000000Y-152000000D02*
X119000000Y-151500000D01*
X116412500Y-148912500D02*
X116412500Y-146912500D01*
X119000000Y-151500000D02*
X116412500Y-148912500D01*
%TO.N,Net-(U1-VCAP2)*%
X120500000Y-151500000D02*
X117412500Y-148412500D01*
X117412500Y-148412500D02*
X117412500Y-146912500D01*
X120500000Y-152000000D02*
X120500000Y-151500000D01*
%TO.N,Net-(U1-VCAP3)*%
X115500000Y-128960000D02*
X117000000Y-128960000D01*
X115500000Y-128960000D02*
X115412500Y-129047500D01*
X115412500Y-132087500D02*
X117000000Y-130500000D01*
X117000000Y-130500000D02*
X117000000Y-128960000D01*
X115412500Y-135587500D02*
X115412500Y-132087500D01*
%TO.N,Net-(U1-VCAP4)*%
X115412500Y-148912500D02*
X115412500Y-146912500D01*
X117500000Y-152000000D02*
X117500000Y-151000000D01*
X117500000Y-151000000D02*
X115412500Y-148912500D01*
X115460000Y-146960000D02*
X115412500Y-146912500D01*
%TO.N,BIAS_OUT*%
X109520000Y-130470000D02*
X109490000Y-130500000D01*
X109520000Y-124500000D02*
X106500000Y-124500000D01*
X109500000Y-132500000D02*
X109490000Y-132490000D01*
X106500000Y-124500000D02*
X94500000Y-112500000D01*
X111412500Y-134412500D02*
X109500000Y-132500000D01*
X109500000Y-132500000D02*
X109520000Y-132480000D01*
X109520000Y-124500000D02*
X109520000Y-128000000D01*
X109490000Y-132490000D02*
X109490000Y-130500000D01*
X111912500Y-135587500D02*
X111412500Y-135587500D01*
X94500000Y-112500000D02*
X81500000Y-112500000D01*
X109520000Y-128000000D02*
X109520000Y-130470000D01*
X111412500Y-135587500D02*
X111412500Y-134412500D01*
%TO.N,Net-(U1-VREFP)*%
X115020000Y-151500000D02*
X114412500Y-150892500D01*
X115020000Y-153000000D02*
X115020000Y-151500000D01*
X114412500Y-150892500D02*
X114412500Y-146912500D01*
%TO.N,Net-(U1-GPIO4)*%
X120325000Y-138500000D02*
X142500000Y-138500000D01*
X142500000Y-138500000D02*
X143500000Y-137500000D01*
X143500000Y-137500000D02*
X145970000Y-137500000D01*
%TO.N,Net-(U1-GPIO2)*%
X145990000Y-140500000D02*
X143500000Y-140500000D01*
X143500000Y-140500000D02*
X142500000Y-139500000D01*
X142500000Y-139500000D02*
X120325000Y-139500000D01*
%TO.N,Net-(U1-GPIO1)*%
X142000000Y-141500000D02*
X133000000Y-141500000D01*
X143000000Y-142500000D02*
X142000000Y-141500000D01*
X133000000Y-141500000D02*
X132000000Y-140500000D01*
X146000000Y-142500000D02*
X143500000Y-142500000D01*
X132000000Y-140500000D02*
X120325000Y-140500000D01*
X143500000Y-142500000D02*
X143000000Y-142500000D01*
%TO.N,Net-(U1-GPIO3)*%
X145980000Y-139000000D02*
X120325000Y-139000000D01*
%TO.N,MISO*%
X162500000Y-131000000D02*
X161000000Y-131000000D01*
X150500000Y-141500000D02*
X143000000Y-141500000D01*
X133500000Y-141000000D02*
X132500000Y-140000000D01*
X161000000Y-131000000D02*
X150500000Y-141500000D01*
X143000000Y-141500000D02*
X142500000Y-141000000D01*
X132500000Y-140000000D02*
X120325000Y-140000000D01*
X142500000Y-141000000D02*
X133500000Y-141000000D01*
%TO.N,DRDY*%
X140500000Y-138000000D02*
X150500000Y-128000000D01*
X162500000Y-128000000D02*
X150500000Y-128000000D01*
X120325000Y-138000000D02*
X140500000Y-138000000D01*
%TO.N,DGND*%
X117412500Y-134587500D02*
X120000000Y-132000000D01*
X121000000Y-149500000D02*
X122500000Y-148000000D01*
X122500000Y-147000000D02*
X122500000Y-148500000D01*
X121000000Y-145000000D02*
X120325000Y-145000000D01*
X122932500Y-135587500D02*
X123000000Y-135520000D01*
X148500000Y-142500000D02*
X147020000Y-142500000D01*
X140500000Y-142000000D02*
X142000000Y-143500000D01*
X121500000Y-130500000D02*
X121000000Y-130500000D01*
X124500000Y-150500000D02*
X126000000Y-150500000D01*
X164000000Y-116540000D02*
X161000000Y-116540000D01*
X121000000Y-130500000D02*
X120500000Y-131000000D01*
X148500000Y-137500000D02*
X146990000Y-137500000D01*
X122500000Y-148500000D02*
X124500000Y-150500000D01*
X117912500Y-146912500D02*
X117912500Y-147912500D01*
X161000000Y-116540000D02*
X159500000Y-118040000D01*
X126000000Y-135500000D02*
X125980000Y-135520000D01*
X157040000Y-115580000D02*
X159500000Y-118040000D01*
X142000000Y-143500000D02*
X143000000Y-143500000D01*
X125980000Y-135520000D02*
X123000000Y-135520000D01*
X131000000Y-141000000D02*
X132000000Y-142000000D01*
X119500000Y-149500000D02*
X121000000Y-149500000D01*
X118412500Y-135587500D02*
X122932500Y-135587500D01*
X148500000Y-139000000D02*
X147000000Y-139000000D01*
X122500000Y-146500000D02*
X121000000Y-145000000D01*
X120325000Y-141000000D02*
X131000000Y-141000000D01*
X118460000Y-135540000D02*
X118412500Y-135587500D01*
X148500000Y-140500000D02*
X147010000Y-140500000D01*
X132000000Y-142000000D02*
X140500000Y-142000000D01*
X120540000Y-131040000D02*
X120540000Y-132000000D01*
X120000000Y-132000000D02*
X120540000Y-132000000D01*
X120500000Y-131000000D02*
X120540000Y-131040000D01*
X150040000Y-115620000D02*
X150000000Y-115580000D01*
X150000000Y-115580000D02*
X157040000Y-115580000D01*
X122500000Y-148000000D02*
X122500000Y-146500000D01*
X117912500Y-147912500D02*
X119500000Y-149500000D01*
X117412500Y-135587500D02*
X117412500Y-134587500D01*
%TO.N,START*%
X150000000Y-146500000D02*
X156500000Y-140000000D01*
X120325000Y-142500000D02*
X126500000Y-142500000D01*
X156500000Y-140000000D02*
X162500000Y-140000000D01*
X126500000Y-142500000D02*
X128000000Y-144000000D01*
X128000000Y-144000000D02*
X136500000Y-144000000D01*
X139000000Y-146500000D02*
X150000000Y-146500000D01*
X136500000Y-144000000D02*
X139000000Y-146500000D01*
%TO.N,CSI*%
X127500000Y-142000000D02*
X120325000Y-142000000D01*
X138000000Y-143500000D02*
X129000000Y-143500000D01*
X158000000Y-137000000D02*
X149000000Y-146000000D01*
X129000000Y-143500000D02*
X127500000Y-142000000D01*
X149000000Y-146000000D02*
X140500000Y-146000000D01*
X162500000Y-137000000D02*
X158000000Y-137000000D01*
X140500000Y-146000000D02*
X138000000Y-143500000D01*
%TO.N,RESET*%
X150500000Y-148500000D02*
X153000000Y-146000000D01*
X138000000Y-148500000D02*
X135000000Y-145500000D01*
X125000000Y-143500000D02*
X120325000Y-143500000D01*
X153000000Y-146000000D02*
X162500000Y-146000000D01*
X135000000Y-145500000D02*
X127000000Y-145500000D01*
X127000000Y-145500000D02*
X125000000Y-143500000D01*
X150500000Y-148500000D02*
X138000000Y-148500000D01*
%TO.N,SRB2*%
X92450000Y-168550000D02*
X110000000Y-151000000D01*
X111412500Y-148087500D02*
X111412500Y-146912500D01*
X110000000Y-151000000D02*
X110000000Y-149500000D01*
X110000000Y-149500000D02*
X111412500Y-148087500D01*
X81500000Y-168550000D02*
X92450000Y-168550000D01*
%TO.N,MOSI*%
X133000000Y-147500000D02*
X126000000Y-147500000D01*
X123000000Y-144500000D02*
X120325000Y-144500000D01*
X139000000Y-152000000D02*
X142000000Y-155000000D01*
X137500000Y-152000000D02*
X133000000Y-147500000D01*
X142000000Y-155000000D02*
X162500000Y-155000000D01*
X137500000Y-152000000D02*
X139000000Y-152000000D01*
X126000000Y-147500000D02*
X123000000Y-144500000D01*
%TO.N,SCLK*%
X149000000Y-144500000D02*
X141000000Y-144500000D01*
X162500000Y-134000000D02*
X159500000Y-134000000D01*
X139000000Y-142500000D02*
X130000000Y-142500000D01*
X141000000Y-144500000D02*
X139000000Y-142500000D01*
X129000000Y-141500000D02*
X120325000Y-141500000D01*
X130000000Y-142500000D02*
X129000000Y-141500000D01*
X159500000Y-134000000D02*
X149000000Y-144500000D01*
%TO.N,CLK*%
X138500000Y-147500000D02*
X150500000Y-147500000D01*
X127500000Y-144500000D02*
X135500000Y-144500000D01*
X150500000Y-147500000D02*
X155000000Y-143000000D01*
X155000000Y-143000000D02*
X162500000Y-143000000D01*
X135500000Y-144500000D02*
X138500000Y-147500000D01*
X126000000Y-143000000D02*
X127500000Y-144500000D01*
X120325000Y-143000000D02*
X126000000Y-143000000D01*
%TO.N,SRB1*%
X81500000Y-165500000D02*
X94500000Y-165500000D01*
X109000000Y-151000000D02*
X109000000Y-148825000D01*
X94500000Y-165500000D02*
X109000000Y-151000000D01*
X109000000Y-148825000D02*
X110912500Y-146912500D01*
%TO.N,+7.5V*%
X114500000Y-89500000D02*
X117000000Y-89500000D01*
X125000000Y-81500000D02*
X151500000Y-81500000D01*
X117000000Y-89500000D02*
X125000000Y-81500000D01*
X151500000Y-81500000D02*
X152540000Y-82540000D01*
X152500000Y-84500000D02*
X152540000Y-84540000D01*
X152540000Y-82540000D02*
X152540000Y-84540000D01*
%TO.N,+3.7V*%
X159000000Y-100500000D02*
X159000000Y-101450000D01*
X159000000Y-101450000D02*
X159050000Y-101500000D01*
X124000000Y-91000000D02*
X124000000Y-89500000D01*
X123000000Y-94000000D02*
X123000000Y-92000000D01*
X123000000Y-92000000D02*
X124000000Y-91000000D01*
X159050000Y-101500000D02*
X159050000Y-104915000D01*
%TO.N,Net-(D1-K)*%
X159500000Y-89960000D02*
X158580000Y-89040000D01*
X155080000Y-84540000D02*
X155080000Y-85540000D01*
X155080000Y-85540000D02*
X158580000Y-89040000D01*
X156160000Y-93200000D02*
X156500000Y-93540000D01*
X163500000Y-89960000D02*
X159500000Y-89960000D01*
X156500000Y-93540000D02*
X156500000Y-91120000D01*
X156500000Y-91120000D02*
X158580000Y-89040000D01*
X158580000Y-89040000D02*
X159080000Y-89040000D01*
%TO.N,Net-(D2-K)*%
X159500000Y-115007500D02*
X153970000Y-109477500D01*
X159500000Y-115040000D02*
X159500000Y-115007500D01*
X153970000Y-107620000D02*
X153970000Y-109477500D01*
X150000000Y-110500000D02*
X152947500Y-110500000D01*
X158100000Y-103040000D02*
X158100000Y-103490000D01*
X152947500Y-110500000D02*
X153970000Y-109477500D01*
X151010000Y-110500000D02*
X155550000Y-115040000D01*
X150000000Y-110500000D02*
X151010000Y-110500000D01*
X155550000Y-115040000D02*
X159500000Y-115040000D01*
X158100000Y-103490000D02*
X153970000Y-107620000D01*
%TO.N,Net-(D1-A)*%
X148420000Y-94460000D02*
X149000000Y-95040000D01*
X148420000Y-89040000D02*
X148420000Y-94460000D01*
X150000000Y-84540000D02*
X150000000Y-87460000D01*
X150000000Y-87460000D02*
X148420000Y-89040000D01*
%TO.N,Net-(D2-A)*%
X164130000Y-105620000D02*
X164130000Y-109477500D01*
X161550000Y-103040000D02*
X164130000Y-105620000D01*
X164000000Y-109607500D02*
X164130000Y-109477500D01*
X160000000Y-103040000D02*
X161550000Y-103040000D01*
X164000000Y-115520000D02*
X164000000Y-109607500D01*
%TO.N,Net-(J1-Pin_1)*%
X85490000Y-161000000D02*
X81500000Y-161000000D01*
%TO.N,Net-(J24-Pin_1)*%
X85510000Y-158000000D02*
X81500000Y-158000000D01*
%TO.N,BIAS_INV*%
X110510000Y-131950000D02*
X110510000Y-130500000D01*
X110510000Y-130500000D02*
X110510000Y-130010000D01*
X110480000Y-129980000D02*
X110480000Y-124500000D01*
X110510000Y-130010000D02*
X110480000Y-129980000D01*
X110480000Y-131980000D02*
X110510000Y-131950000D01*
X112412500Y-133912500D02*
X110480000Y-131980000D01*
X112412500Y-135587500D02*
X112412500Y-133912500D01*
%TO.N,Net-(J25-Pin_1)*%
X85490000Y-137000000D02*
X81500000Y-137000000D01*
%TO.N,Net-(J5-Pin_1)*%
X85500000Y-152000000D02*
X81500000Y-152000000D01*
%TO.N,Net-(J17-Pin_1)*%
X85480000Y-155000000D02*
X81500000Y-155000000D01*
%TO.N,Net-(J26-Pin_1)*%
X82000000Y-128500000D02*
X81500000Y-128000000D01*
X85480000Y-128000000D02*
X81500000Y-128000000D01*
%TO.N,Net-(J27-Pin_1)*%
X85490000Y-131000000D02*
X81500000Y-131000000D01*
X82000000Y-130500000D02*
X81500000Y-131000000D01*
%TO.N,Net-(J18-Pin_1)*%
X85490000Y-146000000D02*
X81500000Y-146000000D01*
%TO.N,Net-(J19-Pin_1)*%
X85490000Y-149000000D02*
X81500000Y-149000000D01*
%TO.N,Net-(J28-Pin_1)*%
X85490000Y-122000000D02*
X81500000Y-122000000D01*
%TO.N,Net-(J20-Pin_1)*%
X85500000Y-140000000D02*
X81500000Y-140000000D01*
%TO.N,Net-(J29-Pin_1)*%
X82000000Y-124500000D02*
X81500000Y-125000000D01*
X85490000Y-125000000D02*
X81500000Y-125000000D01*
%TO.N,Net-(J30-Pin_1)*%
X85480000Y-116000000D02*
X81500000Y-116000000D01*
%TO.N,Net-(J21-Pin_1)*%
X85500000Y-143000000D02*
X81500000Y-143000000D01*
%TO.N,Net-(J31-Pin_1)*%
X85490000Y-119000000D02*
X81500000Y-119000000D01*
%TO.N,Net-(J22-Pin_1)*%
X85490000Y-134000000D02*
X81500000Y-134000000D01*
X82000000Y-134500000D02*
X81500000Y-134000000D01*
%TO.N,/Regulator_3.3V*%
X117912500Y-134816176D02*
X119728676Y-133000000D01*
X119728676Y-133000000D02*
X121500000Y-133000000D01*
X121500000Y-133000000D02*
X121500000Y-132000000D01*
X117912500Y-135587500D02*
X117912500Y-134816176D01*
%TO.N,/IN-*%
X100220001Y-136275000D02*
X99965001Y-136020000D01*
X104446802Y-141235000D02*
X100220001Y-141235000D01*
X93225000Y-130068603D02*
X93225000Y-124906802D01*
X87779999Y-117279999D02*
X86500000Y-116000000D01*
X98779999Y-141235000D02*
X95553198Y-141235000D01*
X99034999Y-148500000D02*
X98779999Y-148755000D01*
X99965001Y-143500000D02*
X99500000Y-143500000D01*
X98889000Y-151633450D02*
X98889000Y-152286550D01*
X109000000Y-143500000D02*
X107893749Y-143500000D01*
X99050000Y-151450000D02*
X99050000Y-151472450D01*
X105843198Y-138525000D02*
X103593198Y-136275000D01*
X94573198Y-143755000D02*
X92093198Y-141275000D01*
X88265001Y-135275000D02*
X86990001Y-134000000D01*
X100220001Y-151255000D02*
X99965001Y-151000000D01*
X101818198Y-133000000D02*
X99500000Y-133000000D01*
X102926802Y-146255000D02*
X100220001Y-146255000D01*
X86990001Y-146000000D02*
X86510000Y-146000000D01*
X106656802Y-142525000D02*
X102926802Y-146255000D01*
X99965001Y-138480000D02*
X99500000Y-138480000D01*
X99034999Y-143500000D02*
X98779999Y-143755000D01*
X95416803Y-159264999D02*
X87794999Y-159264999D01*
X106343198Y-137525000D02*
X101818198Y-133000000D01*
X88265001Y-123275000D02*
X86990001Y-122000000D01*
X99500000Y-140980000D02*
X99034999Y-140980000D01*
X105343198Y-139525000D02*
X104553198Y-138735000D01*
X105156802Y-140525000D02*
X104446802Y-141235000D01*
X107893749Y-137500000D02*
X107868749Y-137525000D01*
X99500000Y-136020000D02*
X99176397Y-136020000D01*
X107656802Y-144525000D02*
X100926802Y-151255000D01*
X99965001Y-146000000D02*
X99500000Y-146000000D01*
X100220001Y-143755000D02*
X99965001Y-143500000D01*
X99460000Y-143460000D02*
X99500000Y-143420000D01*
X100220001Y-146255000D02*
X99965001Y-146000000D01*
X100220001Y-141235000D02*
X99965001Y-140980000D01*
X87794999Y-159264999D02*
X86530000Y-158000000D01*
X98225000Y-147275000D02*
X88265001Y-147275000D01*
X100926802Y-151255000D02*
X100220001Y-151255000D01*
X99176397Y-136020000D02*
X93225000Y-130068603D01*
X98779999Y-148755000D02*
X97926802Y-148755000D01*
X107868749Y-142525000D02*
X106656802Y-142525000D01*
X99050000Y-152447550D02*
X99050000Y-155631802D01*
X87784999Y-153264999D02*
X86520000Y-152000000D01*
X98779999Y-138735000D02*
X98553198Y-138735000D01*
X99500000Y-146000000D02*
X98225000Y-147275000D01*
X86990001Y-134000000D02*
X86510000Y-134000000D01*
X99050000Y-151472450D02*
X98889000Y-151633450D01*
X93225000Y-124906802D02*
X91593198Y-123275000D01*
X107868749Y-137525000D02*
X106343198Y-137525000D01*
X86990001Y-122000000D02*
X86510000Y-122000000D01*
X89593198Y-135275000D02*
X88265001Y-135275000D01*
X93416803Y-153264999D02*
X87784999Y-153264999D01*
X107893749Y-141500000D02*
X107868749Y-141525000D01*
X97926802Y-148755000D02*
X93416803Y-153264999D01*
X107868749Y-138525000D02*
X105843198Y-138525000D01*
X107156802Y-143525000D02*
X101926802Y-148755000D01*
X107893749Y-142500000D02*
X107868749Y-142525000D01*
X109000000Y-142500000D02*
X107893749Y-142500000D01*
X99500000Y-138480000D02*
X99034999Y-138480000D01*
X107868749Y-139525000D02*
X105343198Y-139525000D01*
X109000000Y-139500000D02*
X107893749Y-139500000D01*
X109000000Y-144500000D02*
X107893749Y-144500000D01*
X99500000Y-125681802D02*
X91098197Y-117279999D01*
X91098197Y-117279999D02*
X87779999Y-117279999D01*
X100220001Y-138735000D02*
X99965001Y-138480000D01*
X103926802Y-143755000D02*
X100220001Y-143755000D01*
X99500000Y-148500000D02*
X99034999Y-148500000D01*
X107893749Y-140500000D02*
X107868749Y-140525000D01*
X99965001Y-148500000D02*
X99500000Y-148500000D01*
X100220001Y-148755000D02*
X99965001Y-148500000D01*
X99965001Y-151000000D02*
X99500000Y-151000000D01*
X88265001Y-147275000D02*
X86990001Y-146000000D01*
X107893749Y-138500000D02*
X107868749Y-138525000D01*
X101926802Y-148755000D02*
X100220001Y-148755000D01*
X98553198Y-138735000D02*
X89098197Y-129279999D01*
X109000000Y-138500000D02*
X107893749Y-138500000D01*
X107868749Y-141525000D02*
X106156802Y-141525000D01*
X109000000Y-137500000D02*
X107893749Y-137500000D01*
X87000001Y-140000000D02*
X86520000Y-140000000D01*
X91593198Y-123275000D02*
X88265001Y-123275000D01*
X95553198Y-141235000D02*
X89593198Y-135275000D01*
X99034999Y-140980000D02*
X98779999Y-141235000D01*
X98889000Y-152286550D02*
X99050000Y-152447550D01*
X103593198Y-136275000D02*
X100220001Y-136275000D01*
X99034999Y-138480000D02*
X98779999Y-138735000D01*
X99500000Y-143500000D02*
X99034999Y-143500000D01*
X99965001Y-140980000D02*
X99500000Y-140980000D01*
X107868749Y-143525000D02*
X107156802Y-143525000D01*
X99965001Y-136020000D02*
X99500000Y-136020000D01*
X107868749Y-140525000D02*
X105156802Y-140525000D01*
X88275001Y-141275000D02*
X87000001Y-140000000D01*
X106156802Y-141525000D02*
X103926802Y-143755000D01*
X99050000Y-155631802D02*
X95416803Y-159264999D01*
X107868749Y-144525000D02*
X107656802Y-144525000D01*
X99500000Y-133000000D02*
X99500000Y-125681802D01*
X99500000Y-151000000D02*
X99050000Y-151450000D01*
X87779999Y-129279999D02*
X86500000Y-128000000D01*
X109000000Y-141500000D02*
X107893749Y-141500000D01*
X98779999Y-143755000D02*
X94573198Y-143755000D01*
X107893749Y-143500000D02*
X107868749Y-143525000D01*
X104553198Y-138735000D02*
X100220001Y-138735000D01*
X109000000Y-140500000D02*
X107893749Y-140500000D01*
X107893749Y-144500000D02*
X107868749Y-144525000D01*
X89098197Y-129279999D02*
X87779999Y-129279999D01*
X107893749Y-139500000D02*
X107868749Y-139525000D01*
X92093198Y-141275000D02*
X88275001Y-141275000D01*
%TO.N,/IN+*%
X105656802Y-138975000D02*
X103406802Y-136725000D01*
X91906802Y-141725000D02*
X88275001Y-141725000D01*
X99034999Y-139440000D02*
X98779999Y-139185000D01*
X94386802Y-144205000D02*
X91906802Y-141725000D01*
X88911803Y-129730001D02*
X87779999Y-129730001D01*
X99176397Y-146960000D02*
X98411397Y-147725000D01*
X109000000Y-144000000D02*
X107893749Y-144000000D01*
X107843198Y-144975000D02*
X101113198Y-151705000D01*
X98779999Y-144205000D02*
X94386802Y-144205000D01*
X109000000Y-138000000D02*
X107893749Y-138000000D01*
X87784999Y-153715001D02*
X86500000Y-155000000D01*
X99500000Y-133960000D02*
X99050000Y-133510000D01*
X89406802Y-135725000D02*
X88265001Y-135725000D01*
X100220001Y-149205000D02*
X99965001Y-149460000D01*
X98366802Y-139185000D02*
X88911803Y-129730001D01*
X99965001Y-139440000D02*
X99500000Y-139440000D01*
X101113198Y-151705000D02*
X100220001Y-151705000D01*
X109000000Y-142000000D02*
X107893749Y-142000000D01*
X107868749Y-141975000D02*
X106343198Y-141975000D01*
X107868749Y-138975000D02*
X105656802Y-138975000D01*
X102113198Y-149205000D02*
X100220001Y-149205000D01*
X107868749Y-142975000D02*
X106843198Y-142975000D01*
X107868749Y-143975000D02*
X107343198Y-143975000D01*
X100220001Y-146705000D02*
X99965001Y-146960000D01*
X100220001Y-141685000D02*
X99965001Y-141940000D01*
X106156802Y-137975000D02*
X101631803Y-133450001D01*
X109000000Y-139000000D02*
X107893749Y-139000000D01*
X103406802Y-136725000D02*
X100220001Y-136725000D01*
X107893749Y-141000000D02*
X107868749Y-140975000D01*
X107868749Y-140975000D02*
X105343198Y-140975000D01*
X99965001Y-136980000D02*
X99500000Y-136980000D01*
X98889000Y-133326550D02*
X98889000Y-132673450D01*
X100009999Y-133450001D02*
X99500000Y-133960000D01*
X87779999Y-129730001D02*
X86510000Y-131000000D01*
X107868749Y-137975000D02*
X106156802Y-137975000D01*
X98779999Y-149205000D02*
X98113198Y-149205000D01*
X105156802Y-139975000D02*
X104366802Y-139185000D01*
X106343198Y-141975000D02*
X104113198Y-144205000D01*
X106843198Y-142975000D02*
X103113198Y-146705000D01*
X88275001Y-141725000D02*
X87000001Y-143000000D01*
X86990001Y-137000000D02*
X86510000Y-137000000D01*
X87794999Y-159715001D02*
X86510000Y-161000000D01*
X107893749Y-142000000D02*
X107868749Y-141975000D01*
X87000001Y-143000000D02*
X86520000Y-143000000D01*
X104113198Y-144205000D02*
X100220001Y-144205000D01*
X100220001Y-144205000D02*
X99965001Y-144460000D01*
X101631803Y-133450001D02*
X100009999Y-133450001D01*
X98889000Y-132673450D02*
X99050000Y-132512450D01*
X99050000Y-133487550D02*
X98889000Y-133326550D01*
X99500000Y-155818198D02*
X95603197Y-159715001D01*
X99500000Y-141940000D02*
X99034999Y-141940000D01*
X99460000Y-144500000D02*
X99500000Y-144460000D01*
X109000000Y-143000000D02*
X107893749Y-143000000D01*
X95603197Y-159715001D02*
X87794999Y-159715001D01*
X88265001Y-135725000D02*
X86990001Y-137000000D01*
X98113198Y-149205000D02*
X93603197Y-153715001D01*
X87779999Y-117730001D02*
X86510000Y-119000000D01*
X107868749Y-139975000D02*
X105156802Y-139975000D01*
X95366802Y-141685000D02*
X89406802Y-135725000D01*
X98779999Y-141685000D02*
X95366802Y-141685000D01*
X100220001Y-139185000D02*
X99965001Y-139440000D01*
X103113198Y-146705000D02*
X100220001Y-146705000D01*
X90911803Y-117730001D02*
X87779999Y-117730001D01*
X99500000Y-139440000D02*
X99034999Y-139440000D01*
X107893749Y-139000000D02*
X107868749Y-138975000D01*
X93603197Y-153715001D02*
X87784999Y-153715001D01*
X99965001Y-141940000D02*
X99500000Y-141940000D01*
X109000000Y-145000000D02*
X107893749Y-145000000D01*
X107868749Y-144975000D02*
X107843198Y-144975000D01*
X104633198Y-141685000D02*
X100220001Y-141685000D01*
X100220001Y-151705000D02*
X99965001Y-151960000D01*
X99050000Y-125868198D02*
X90911803Y-117730001D01*
X109000000Y-140000000D02*
X107893749Y-140000000D01*
X107893749Y-138000000D02*
X107868749Y-137975000D01*
X99965001Y-151960000D02*
X99500000Y-151960000D01*
X107893749Y-145000000D02*
X107868749Y-144975000D01*
X107893749Y-144000000D02*
X107868749Y-143975000D01*
X92775000Y-130255000D02*
X92775000Y-125093198D01*
X99965001Y-144460000D02*
X99500000Y-144460000D01*
X88265001Y-147725000D02*
X86990001Y-149000000D01*
X92775000Y-125093198D02*
X91406802Y-123725000D01*
X86990001Y-125000000D02*
X86510000Y-125000000D01*
X98779999Y-139185000D02*
X98366802Y-139185000D01*
X99034999Y-144460000D02*
X98779999Y-144205000D01*
X99500000Y-151960000D02*
X99500000Y-155818198D01*
X99034999Y-149460000D02*
X98779999Y-149205000D01*
X98411397Y-147725000D02*
X88265001Y-147725000D01*
X99480000Y-139460000D02*
X99500000Y-139440000D01*
X107343198Y-143975000D02*
X102113198Y-149205000D01*
X99500000Y-136980000D02*
X92775000Y-130255000D01*
X99500000Y-149460000D02*
X99034999Y-149460000D01*
X107893749Y-143000000D02*
X107868749Y-142975000D01*
X100220001Y-136725000D02*
X99965001Y-136980000D01*
X99965001Y-149460000D02*
X99500000Y-149460000D01*
X99034999Y-141940000D02*
X98779999Y-141685000D01*
X105343198Y-140975000D02*
X104633198Y-141685000D01*
X99050000Y-133510000D02*
X99050000Y-133487550D01*
X99965001Y-146960000D02*
X99500000Y-146960000D01*
X99050000Y-132512450D02*
X99050000Y-125868198D01*
X88265001Y-123725000D02*
X86990001Y-125000000D01*
X107893749Y-140000000D02*
X107868749Y-139975000D01*
X86990001Y-149000000D02*
X86510000Y-149000000D01*
X109000000Y-141000000D02*
X107893749Y-141000000D01*
X99500000Y-144460000D02*
X99034999Y-144460000D01*
X104366802Y-139185000D02*
X100220001Y-139185000D01*
X99500000Y-146960000D02*
X99176397Y-146960000D01*
X91406802Y-123725000D02*
X88265001Y-123725000D01*
%TD*%
%TA.AperFunction,Conductor*%
%TO.N,AVDD*%
G36*
X117943039Y-122019685D02*
G01*
X117988794Y-122072489D01*
X118000000Y-122124000D01*
X118000000Y-124376000D01*
X117980315Y-124443039D01*
X117927511Y-124488794D01*
X117876000Y-124500000D01*
X113624000Y-124500000D01*
X113556961Y-124480315D01*
X113511206Y-124427511D01*
X113500000Y-124376000D01*
X113500000Y-122124000D01*
X113519685Y-122056961D01*
X113572489Y-122011206D01*
X113624000Y-122000000D01*
X117876000Y-122000000D01*
X117943039Y-122019685D01*
G37*
%TD.AperFunction*%
%TD*%
%TA.AperFunction,Conductor*%
%TO.N,AVDD*%
G36*
X115443039Y-159019685D02*
G01*
X115488794Y-159072489D01*
X115500000Y-159124000D01*
X115500000Y-161376000D01*
X115480315Y-161443039D01*
X115427511Y-161488794D01*
X115376000Y-161500000D01*
X112124000Y-161500000D01*
X112056961Y-161480315D01*
X112011206Y-161427511D01*
X112000000Y-161376000D01*
X112000000Y-159124000D01*
X112019685Y-159056961D01*
X112072489Y-159011206D01*
X112124000Y-159000000D01*
X115376000Y-159000000D01*
X115443039Y-159019685D01*
G37*
%TD.AperFunction*%
%TD*%
%TA.AperFunction,Conductor*%
%TO.N,DVDD*%
G36*
X128443039Y-128019685D02*
G01*
X128488794Y-128072489D01*
X128500000Y-128124000D01*
X128500000Y-134376000D01*
X128480315Y-134443039D01*
X128427511Y-134488794D01*
X128376000Y-134500000D01*
X120624000Y-134500000D01*
X120556961Y-134480315D01*
X120511206Y-134427511D01*
X120500000Y-134376000D01*
X120500000Y-133724500D01*
X120519685Y-133657461D01*
X120572489Y-133611706D01*
X120624000Y-133600500D01*
X121579055Y-133600500D01*
X121579057Y-133600500D01*
X121731784Y-133559577D01*
X121868716Y-133480520D01*
X121980520Y-133368716D01*
X122059577Y-133231784D01*
X122100500Y-133079057D01*
X122100500Y-132666666D01*
X122120185Y-132599627D01*
X122136816Y-132578987D01*
X122150117Y-132565687D01*
X122232494Y-132426395D01*
X122277643Y-132270993D01*
X122280500Y-132234690D01*
X122280500Y-131765310D01*
X122277643Y-131729007D01*
X122232494Y-131573605D01*
X122150117Y-131434313D01*
X122150115Y-131434311D01*
X122150112Y-131434307D01*
X122035692Y-131319887D01*
X122035688Y-131319884D01*
X122035687Y-131319883D01*
X122035684Y-131319881D01*
X122035681Y-131319879D01*
X122032841Y-131318199D01*
X122031070Y-131316302D01*
X122029524Y-131315103D01*
X122029717Y-131314853D01*
X121985161Y-131267127D01*
X121972661Y-131198385D01*
X121999311Y-131133797D01*
X122008288Y-131123789D01*
X122010285Y-131121791D01*
X122010289Y-131121789D01*
X122121789Y-131010289D01*
X122209394Y-130879179D01*
X122269737Y-130733497D01*
X122300500Y-130578842D01*
X122300500Y-130421158D01*
X122300500Y-130421155D01*
X122300499Y-130421153D01*
X122269738Y-130266510D01*
X122269737Y-130266503D01*
X122269735Y-130266498D01*
X122209397Y-130120827D01*
X122209390Y-130120814D01*
X122121789Y-129989711D01*
X122121786Y-129989707D01*
X122010292Y-129878213D01*
X122010288Y-129878210D01*
X121879185Y-129790609D01*
X121879172Y-129790602D01*
X121733501Y-129730264D01*
X121733489Y-129730261D01*
X121578845Y-129699500D01*
X121578842Y-129699500D01*
X121421158Y-129699500D01*
X121421155Y-129699500D01*
X121266510Y-129730261D01*
X121266498Y-129730264D01*
X121120827Y-129790602D01*
X121120814Y-129790609D01*
X120989127Y-129878601D01*
X120928874Y-129897467D01*
X120929002Y-129898438D01*
X120923432Y-129899171D01*
X120922450Y-129899479D01*
X120920996Y-129899492D01*
X120920945Y-129899498D01*
X120768215Y-129940423D01*
X120685999Y-129987890D01*
X120618098Y-130004361D01*
X120552072Y-129981509D01*
X120508882Y-129926587D01*
X120500000Y-129880502D01*
X120500000Y-128124000D01*
X120519685Y-128056961D01*
X120572489Y-128011206D01*
X120624000Y-128000000D01*
X128376000Y-128000000D01*
X128443039Y-128019685D01*
G37*
%TD.AperFunction*%
%TD*%
M02*
