%TF.GenerationSoftware,KiCad,Pcbnew,9.0.3*%
%TF.CreationDate,2025-11-05T19:32:31+02:00*%
%TF.ProjectId,PCB_Design,5043425f-4465-4736-9967-6e2e6b696361,rev?*%
%TF.SameCoordinates,Original*%
%TF.FileFunction,Soldermask,Top*%
%TF.FilePolarity,Negative*%
%FSLAX46Y46*%
G04 Gerber Fmt 4.6, Leading zero omitted, Abs format (unit mm)*
G04 Created by KiCad (PCBNEW 9.0.3) date 2025-11-05 19:32:31*
%MOMM*%
%LPD*%
G01*
G04 APERTURE LIST*
G04 Aperture macros list*
%AMRoundRect*
0 Rectangle with rounded corners*
0 $1 Rounding radius*
0 $2 $3 $4 $5 $6 $7 $8 $9 X,Y pos of 4 corners*
0 Add a 4 corners polygon primitive as box body*
4,1,4,$2,$3,$4,$5,$6,$7,$8,$9,$2,$3,0*
0 Add four circle primitives for the rounded corners*
1,1,$1+$1,$2,$3*
1,1,$1+$1,$4,$5*
1,1,$1+$1,$6,$7*
1,1,$1+$1,$8,$9*
0 Add four rect primitives between the rounded corners*
20,1,$1+$1,$2,$3,$4,$5,0*
20,1,$1+$1,$4,$5,$6,$7,0*
20,1,$1+$1,$6,$7,$8,$9,0*
20,1,$1+$1,$8,$9,$2,$3,0*%
G04 Aperture macros list end*
%ADD10R,1.350000X1.350000*%
%ADD11R,1.000000X1.000000*%
%ADD12RoundRect,0.135000X0.135000X0.185000X-0.135000X0.185000X-0.135000X-0.185000X0.135000X-0.185000X0*%
%ADD13RoundRect,0.140000X-0.140000X-0.170000X0.140000X-0.170000X0.140000X0.170000X-0.140000X0.170000X0*%
%ADD14RoundRect,0.135000X-0.135000X-0.185000X0.135000X-0.185000X0.135000X0.185000X-0.135000X0.185000X0*%
%ADD15RoundRect,0.140000X0.170000X-0.140000X0.170000X0.140000X-0.170000X0.140000X-0.170000X-0.140000X0*%
%ADD16RoundRect,0.140000X0.140000X0.170000X-0.140000X0.170000X-0.140000X-0.170000X0.140000X-0.170000X0*%
%ADD17RoundRect,0.140000X-0.170000X0.140000X-0.170000X-0.140000X0.170000X-0.140000X0.170000X0.140000X0*%
%ADD18RoundRect,0.150000X-0.150000X0.587500X-0.150000X-0.587500X0.150000X-0.587500X0.150000X0.587500X0*%
%ADD19C,5.000000*%
%ADD20RoundRect,0.135000X-0.185000X0.135000X-0.185000X-0.135000X0.185000X-0.135000X0.185000X0.135000X0*%
%ADD21RoundRect,0.249999X-0.850001X-0.850001X0.850001X-0.850001X0.850001X0.850001X-0.850001X0.850001X0*%
%ADD22C,2.200000*%
%ADD23R,2.000000X1.905000*%
%ADD24O,2.000000X1.905000*%
%ADD25RoundRect,0.250000X0.550000X-0.850000X0.550000X0.850000X-0.550000X0.850000X-0.550000X-0.850000X0*%
%ADD26RoundRect,0.249999X0.850001X0.850001X-0.850001X0.850001X-0.850001X-0.850001X0.850001X-0.850001X0*%
%ADD27RoundRect,0.075000X-0.662500X-0.075000X0.662500X-0.075000X0.662500X0.075000X-0.662500X0.075000X0*%
%ADD28RoundRect,0.075000X-0.075000X-0.662500X0.075000X-0.662500X0.075000X0.662500X-0.075000X0.662500X0*%
%ADD29R,0.850000X0.850000*%
%ADD30C,0.850000*%
%ADD31R,1.905000X2.000000*%
%ADD32O,1.905000X2.000000*%
%ADD33C,0.600000*%
G04 APERTURE END LIST*
D10*
%TO.C,J5*%
X81500000Y-152000000D03*
%TD*%
%TO.C,J27*%
X81500000Y-131000000D03*
%TD*%
D11*
%TO.C,TP28*%
X116500000Y-157000000D03*
%TD*%
D10*
%TO.C,J19*%
X81500000Y-149000000D03*
%TD*%
D12*
%TO.C,R5*%
X110510000Y-130500000D03*
X109490000Y-130500000D03*
%TD*%
D13*
%TO.C,C15*%
X112520000Y-130000000D03*
X113480000Y-130000000D03*
%TD*%
D10*
%TO.C,J9*%
X162500000Y-155000000D03*
%TD*%
%TO.C,J10*%
X162500000Y-137000000D03*
%TD*%
D14*
%TO.C,R14*%
X85500000Y-140000000D03*
X86520000Y-140000000D03*
%TD*%
D11*
%TO.C,TP2*%
X126000000Y-150500000D03*
%TD*%
D15*
%TO.C,C22*%
X99500000Y-133960000D03*
X99500000Y-133000000D03*
%TD*%
D14*
%TO.C,R22*%
X85490000Y-125000000D03*
X86510000Y-125000000D03*
%TD*%
D10*
%TO.C,J31*%
X81500000Y-119000000D03*
%TD*%
D16*
%TO.C,C13*%
X115980000Y-153000000D03*
X115020000Y-153000000D03*
%TD*%
D10*
%TO.C,J28*%
X81500000Y-122000000D03*
%TD*%
D15*
%TO.C,C10*%
X117500000Y-152960000D03*
X117500000Y-152000000D03*
%TD*%
D17*
%TO.C,C1*%
X99500000Y-151000000D03*
X99500000Y-151960000D03*
%TD*%
D18*
%TO.C,Q2*%
X160000000Y-103040000D03*
X158100000Y-103040000D03*
X159050000Y-104915000D03*
%TD*%
D19*
%TO.C,REF\u002A\u002A*%
X177000000Y-81500000D03*
%TD*%
D10*
%TO.C,J26*%
X81500000Y-128000000D03*
%TD*%
D14*
%TO.C,R12*%
X85490000Y-146000000D03*
X86510000Y-146000000D03*
%TD*%
D10*
%TO.C,J8*%
X162500000Y-134000000D03*
%TD*%
D16*
%TO.C,C5*%
X113500000Y-152000000D03*
X112540000Y-152000000D03*
%TD*%
D10*
%TO.C,J15*%
X162500000Y-152000000D03*
%TD*%
D11*
%TO.C,TP17*%
X118000000Y-88500000D03*
%TD*%
D14*
%TO.C,R3*%
X146000000Y-142500000D03*
X147020000Y-142500000D03*
%TD*%
D15*
%TO.C,C4*%
X99500000Y-146960000D03*
X99500000Y-146000000D03*
%TD*%
D20*
%TO.C,R7*%
X164000000Y-115520000D03*
X164000000Y-116540000D03*
%TD*%
D19*
%TO.C,REF\u002A\u002A*%
X70500000Y-81000000D03*
%TD*%
D10*
%TO.C,J21*%
X81500000Y-143000000D03*
%TD*%
D14*
%TO.C,R1*%
X145970000Y-137500000D03*
X146990000Y-137500000D03*
%TD*%
D10*
%TO.C,J22*%
X81500000Y-134000000D03*
%TD*%
D15*
%TO.C,C20*%
X99500000Y-139440000D03*
X99500000Y-138480000D03*
%TD*%
%TO.C,C19*%
X99500000Y-141940000D03*
X99500000Y-140980000D03*
%TD*%
D10*
%TO.C,J30*%
X81500000Y-116000000D03*
%TD*%
D16*
%TO.C,C16*%
X121500000Y-132000000D03*
X120540000Y-132000000D03*
%TD*%
D10*
%TO.C,J1*%
X81500000Y-161000000D03*
%TD*%
D21*
%TO.C,D2*%
X153970000Y-109477500D03*
D22*
X164130000Y-109477500D03*
%TD*%
D20*
%TO.C,R6*%
X149000000Y-95040000D03*
X149000000Y-96060000D03*
%TD*%
D11*
%TO.C,TP1*%
X123000000Y-94000000D03*
%TD*%
D23*
%TO.C,U3*%
X150000000Y-115580000D03*
D24*
X150000000Y-113040000D03*
X150000000Y-110500000D03*
%TD*%
D14*
%TO.C,R13*%
X85490000Y-149000000D03*
X86510000Y-149000000D03*
%TD*%
%TO.C,R4*%
X145980000Y-139000000D03*
X147000000Y-139000000D03*
%TD*%
D25*
%TO.C,C17*%
X156500000Y-96540000D03*
X156500000Y-93540000D03*
%TD*%
D15*
%TO.C,C7*%
X119000000Y-152960000D03*
X119000000Y-152000000D03*
%TD*%
D19*
%TO.C,REF\u002A\u002A*%
X177500000Y-185500000D03*
%TD*%
D11*
%TO.C,TP20*%
X143500000Y-113000000D03*
%TD*%
D25*
%TO.C,C18*%
X159500000Y-118040000D03*
X159500000Y-115040000D03*
%TD*%
D15*
%TO.C,C8*%
X120500000Y-152960000D03*
X120500000Y-152000000D03*
%TD*%
%TO.C,C21*%
X99500000Y-136980000D03*
X99500000Y-136020000D03*
%TD*%
D10*
%TO.C,J17*%
X81500000Y-155000000D03*
%TD*%
D14*
%TO.C,R18*%
X85490000Y-122000000D03*
X86510000Y-122000000D03*
%TD*%
D17*
%TO.C,C4*%
X123000000Y-135520000D03*
X123000000Y-136480000D03*
%TD*%
D10*
%TO.C,J7*%
X81500000Y-165500000D03*
%TD*%
D14*
%TO.C,R20*%
X85490000Y-137000000D03*
X86510000Y-137000000D03*
%TD*%
D10*
%TO.C,J12*%
X162500000Y-143000000D03*
%TD*%
D15*
%TO.C,C2*%
X99500000Y-149460000D03*
X99500000Y-148500000D03*
%TD*%
D10*
%TO.C,J24*%
X81500000Y-158000000D03*
%TD*%
D14*
%TO.C,R17*%
X85480000Y-128000000D03*
X86500000Y-128000000D03*
%TD*%
D26*
%TO.C,D1*%
X158580000Y-89040000D03*
D22*
X148420000Y-89040000D03*
%TD*%
D19*
%TO.C,REF\u002A\u002A*%
X70500000Y-185500000D03*
%TD*%
D10*
%TO.C,J16*%
X162500000Y-146000000D03*
%TD*%
D17*
%TO.C,C9*%
X115500000Y-128000000D03*
X115500000Y-128960000D03*
%TD*%
%TO.C,C3*%
X111500000Y-150020000D03*
X111500000Y-150980000D03*
%TD*%
D10*
%TO.C,J13*%
X162500000Y-149000000D03*
%TD*%
D14*
%TO.C,R16*%
X85490000Y-134000000D03*
X86510000Y-134000000D03*
%TD*%
D10*
%TO.C,J29*%
X81500000Y-125000000D03*
%TD*%
D11*
%TO.C,TP19*%
X163500000Y-99500000D03*
%TD*%
D10*
%TO.C,J4*%
X81500000Y-112500000D03*
%TD*%
D13*
%TO.C,C2*%
X116540000Y-132000000D03*
X117500000Y-132000000D03*
%TD*%
D10*
%TO.C,J6*%
X81500000Y-168550000D03*
%TD*%
%TO.C,J14*%
X162500000Y-128000000D03*
%TD*%
D14*
%TO.C,R11*%
X85480000Y-155000000D03*
X86500000Y-155000000D03*
%TD*%
D27*
%TO.C,U1*%
X109000000Y-137500000D03*
X109000000Y-138000000D03*
X109000000Y-138500000D03*
X109000000Y-139000000D03*
X109000000Y-139500000D03*
X109000000Y-140000000D03*
X109000000Y-140500000D03*
X109000000Y-141000000D03*
X109000000Y-141500000D03*
X109000000Y-142000000D03*
X109000000Y-142500000D03*
X109000000Y-143000000D03*
X109000000Y-143500000D03*
X109000000Y-144000000D03*
X109000000Y-144500000D03*
X109000000Y-145000000D03*
D28*
X110912500Y-146912500D03*
X111412500Y-146912500D03*
X111912500Y-146912500D03*
X112412500Y-146912500D03*
X112912500Y-146912500D03*
X113412500Y-146912500D03*
X113912500Y-146912500D03*
X114412500Y-146912500D03*
X114912500Y-146912500D03*
X115412500Y-146912500D03*
X115912500Y-146912500D03*
X116412500Y-146912500D03*
X116912500Y-146912500D03*
X117412500Y-146912500D03*
X117912500Y-146912500D03*
X118412500Y-146912500D03*
D27*
X120325000Y-145000000D03*
X120325000Y-144500000D03*
X120325000Y-144000000D03*
X120325000Y-143500000D03*
X120325000Y-143000000D03*
X120325000Y-142500000D03*
X120325000Y-142000000D03*
X120325000Y-141500000D03*
X120325000Y-141000000D03*
X120325000Y-140500000D03*
X120325000Y-140000000D03*
X120325000Y-139500000D03*
X120325000Y-139000000D03*
X120325000Y-138500000D03*
X120325000Y-138000000D03*
X120325000Y-137500000D03*
D28*
X118412500Y-135587500D03*
X117912500Y-135587500D03*
X117412500Y-135587500D03*
X116912500Y-135587500D03*
X116412500Y-135587500D03*
X115912500Y-135587500D03*
X115412500Y-135587500D03*
X114912500Y-135587500D03*
X114412500Y-135587500D03*
X113912500Y-135587500D03*
X113412500Y-135587500D03*
X112912500Y-135587500D03*
X112412500Y-135587500D03*
X111912500Y-135587500D03*
X111412500Y-135587500D03*
X110912500Y-135587500D03*
%TD*%
D10*
%TO.C,J23*%
X162500000Y-140000000D03*
%TD*%
D14*
%TO.C,R8*%
X85490000Y-161000000D03*
X86510000Y-161000000D03*
%TD*%
%TO.C,R10*%
X85500000Y-152000000D03*
X86520000Y-152000000D03*
%TD*%
D13*
%TO.C,C14*%
X115020000Y-151500000D03*
X115980000Y-151500000D03*
%TD*%
D14*
%TO.C,R21*%
X85490000Y-131000000D03*
X86510000Y-131000000D03*
%TD*%
D29*
%TO.C,J3*%
X114500000Y-89500000D03*
D30*
X113500000Y-89500000D03*
%TD*%
D10*
%TO.C,J20*%
X81500000Y-140000000D03*
%TD*%
D15*
%TO.C,C11*%
X117000000Y-128960000D03*
X117000000Y-128000000D03*
%TD*%
D16*
%TO.C,C12*%
X110480000Y-124500000D03*
X109520000Y-124500000D03*
%TD*%
D29*
%TO.C,J2*%
X124000000Y-89500000D03*
D30*
X125000000Y-89500000D03*
%TD*%
D15*
%TO.C,C15*%
X99500000Y-144460000D03*
X99500000Y-143500000D03*
%TD*%
D10*
%TO.C,J25*%
X81500000Y-137000000D03*
%TD*%
D23*
%TO.C,U2*%
X163500000Y-89960000D03*
D24*
X163500000Y-92500000D03*
X163500000Y-95040000D03*
%TD*%
D14*
%TO.C,R2*%
X145990000Y-140500000D03*
X147010000Y-140500000D03*
%TD*%
D10*
%TO.C,J18*%
X81500000Y-146000000D03*
%TD*%
D31*
%TO.C,Q1*%
X150000000Y-84540000D03*
D32*
X152540000Y-84540000D03*
X155080000Y-84540000D03*
%TD*%
D14*
%TO.C,R15*%
X85500000Y-143000000D03*
X86520000Y-143000000D03*
%TD*%
%TO.C,R23*%
X85490000Y-119000000D03*
X86510000Y-119000000D03*
%TD*%
%TO.C,R19*%
X85480000Y-116000000D03*
X86500000Y-116000000D03*
%TD*%
D10*
%TO.C,J11*%
X162500000Y-131000000D03*
%TD*%
D14*
%TO.C,R9*%
X85510000Y-158000000D03*
X86530000Y-158000000D03*
%TD*%
D33*
X143000000Y-143500000D03*
M02*
