%TF.GenerationSoftware,KiCad,Pcbnew,9.0.3*%
%TF.CreationDate,2025-11-05T19:32:31+02:00*%
%TF.ProjectId,PCB_Design,5043425f-4465-4736-9967-6e2e6b696361,rev?*%
%TF.SameCoordinates,Original*%
%TF.FileFunction,Paste,Top*%
%TF.FilePolarity,Positive*%
%FSLAX46Y46*%
G04 Gerber Fmt 4.6, Leading zero omitted, Abs format (unit mm)*
G04 Created by KiCad (PCBNEW 9.0.3) date 2025-11-05 19:32:31*
%MOMM*%
%LPD*%
G01*
G04 APERTURE LIST*
G04 Aperture macros list*
%AMRoundRect*
0 Rectangle with rounded corners*
0 $1 Rounding radius*
0 $2 $3 $4 $5 $6 $7 $8 $9 X,Y pos of 4 corners*
0 Add a 4 corners polygon primitive as box body*
4,1,4,$2,$3,$4,$5,$6,$7,$8,$9,$2,$3,0*
0 Add four circle primitives for the rounded corners*
1,1,$1+$1,$2,$3*
1,1,$1+$1,$4,$5*
1,1,$1+$1,$6,$7*
1,1,$1+$1,$8,$9*
0 Add four rect primitives between the rounded corners*
20,1,$1+$1,$2,$3,$4,$5,0*
20,1,$1+$1,$4,$5,$6,$7,0*
20,1,$1+$1,$6,$7,$8,$9,0*
20,1,$1+$1,$8,$9,$2,$3,0*%
G04 Aperture macros list end*
%ADD10RoundRect,0.135000X0.135000X0.185000X-0.135000X0.185000X-0.135000X-0.185000X0.135000X-0.185000X0*%
%ADD11RoundRect,0.140000X-0.140000X-0.170000X0.140000X-0.170000X0.140000X0.170000X-0.140000X0.170000X0*%
%ADD12RoundRect,0.135000X-0.135000X-0.185000X0.135000X-0.185000X0.135000X0.185000X-0.135000X0.185000X0*%
%ADD13RoundRect,0.140000X0.170000X-0.140000X0.170000X0.140000X-0.170000X0.140000X-0.170000X-0.140000X0*%
%ADD14RoundRect,0.140000X0.140000X0.170000X-0.140000X0.170000X-0.140000X-0.170000X0.140000X-0.170000X0*%
%ADD15RoundRect,0.140000X-0.170000X0.140000X-0.170000X-0.140000X0.170000X-0.140000X0.170000X0.140000X0*%
%ADD16RoundRect,0.150000X-0.150000X0.587500X-0.150000X-0.587500X0.150000X-0.587500X0.150000X0.587500X0*%
%ADD17RoundRect,0.135000X-0.185000X0.135000X-0.185000X-0.135000X0.185000X-0.135000X0.185000X0.135000X0*%
%ADD18RoundRect,0.250000X0.550000X-0.850000X0.550000X0.850000X-0.550000X0.850000X-0.550000X-0.850000X0*%
%ADD19RoundRect,0.075000X-0.662500X-0.075000X0.662500X-0.075000X0.662500X0.075000X-0.662500X0.075000X0*%
%ADD20RoundRect,0.075000X-0.075000X-0.662500X0.075000X-0.662500X0.075000X0.662500X-0.075000X0.662500X0*%
G04 APERTURE END LIST*
D10*
%TO.C,R5*%
X110510000Y-130500000D03*
X109490000Y-130500000D03*
%TD*%
D11*
%TO.C,C15*%
X112520000Y-130000000D03*
X113480000Y-130000000D03*
%TD*%
D12*
%TO.C,R14*%
X85500000Y-140000000D03*
X86520000Y-140000000D03*
%TD*%
D13*
%TO.C,C22*%
X99500000Y-133960000D03*
X99500000Y-133000000D03*
%TD*%
D12*
%TO.C,R22*%
X85490000Y-125000000D03*
X86510000Y-125000000D03*
%TD*%
D14*
%TO.C,C13*%
X115980000Y-153000000D03*
X115020000Y-153000000D03*
%TD*%
D13*
%TO.C,C10*%
X117500000Y-152960000D03*
X117500000Y-152000000D03*
%TD*%
D15*
%TO.C,C1*%
X99500000Y-151000000D03*
X99500000Y-151960000D03*
%TD*%
D16*
%TO.C,Q2*%
X160000000Y-103040000D03*
X158100000Y-103040000D03*
X159050000Y-104915000D03*
%TD*%
D12*
%TO.C,R12*%
X85490000Y-146000000D03*
X86510000Y-146000000D03*
%TD*%
D14*
%TO.C,C5*%
X113500000Y-152000000D03*
X112540000Y-152000000D03*
%TD*%
D12*
%TO.C,R3*%
X146000000Y-142500000D03*
X147020000Y-142500000D03*
%TD*%
D13*
%TO.C,C4*%
X99500000Y-146960000D03*
X99500000Y-146000000D03*
%TD*%
D17*
%TO.C,R7*%
X164000000Y-115520000D03*
X164000000Y-116540000D03*
%TD*%
D12*
%TO.C,R1*%
X145970000Y-137500000D03*
X146990000Y-137500000D03*
%TD*%
D13*
%TO.C,C20*%
X99500000Y-139440000D03*
X99500000Y-138480000D03*
%TD*%
%TO.C,C19*%
X99500000Y-141940000D03*
X99500000Y-140980000D03*
%TD*%
D14*
%TO.C,C16*%
X121500000Y-132000000D03*
X120540000Y-132000000D03*
%TD*%
D17*
%TO.C,R6*%
X149000000Y-95040000D03*
X149000000Y-96060000D03*
%TD*%
D12*
%TO.C,R13*%
X85490000Y-149000000D03*
X86510000Y-149000000D03*
%TD*%
%TO.C,R4*%
X145980000Y-139000000D03*
X147000000Y-139000000D03*
%TD*%
D18*
%TO.C,C17*%
X156500000Y-96540000D03*
X156500000Y-93540000D03*
%TD*%
D13*
%TO.C,C7*%
X119000000Y-152960000D03*
X119000000Y-152000000D03*
%TD*%
D18*
%TO.C,C18*%
X159500000Y-118040000D03*
X159500000Y-115040000D03*
%TD*%
D13*
%TO.C,C8*%
X120500000Y-152960000D03*
X120500000Y-152000000D03*
%TD*%
%TO.C,C21*%
X99500000Y-136980000D03*
X99500000Y-136020000D03*
%TD*%
D12*
%TO.C,R18*%
X85490000Y-122000000D03*
X86510000Y-122000000D03*
%TD*%
D15*
%TO.C,C4*%
X123000000Y-135520000D03*
X123000000Y-136480000D03*
%TD*%
D12*
%TO.C,R20*%
X85490000Y-137000000D03*
X86510000Y-137000000D03*
%TD*%
D13*
%TO.C,C2*%
X99500000Y-149460000D03*
X99500000Y-148500000D03*
%TD*%
D12*
%TO.C,R17*%
X85480000Y-128000000D03*
X86500000Y-128000000D03*
%TD*%
D15*
%TO.C,C9*%
X115500000Y-128000000D03*
X115500000Y-128960000D03*
%TD*%
%TO.C,C3*%
X111500000Y-150020000D03*
X111500000Y-150980000D03*
%TD*%
D12*
%TO.C,R16*%
X85490000Y-134000000D03*
X86510000Y-134000000D03*
%TD*%
D11*
%TO.C,C2*%
X116540000Y-132000000D03*
X117500000Y-132000000D03*
%TD*%
D12*
%TO.C,R11*%
X85480000Y-155000000D03*
X86500000Y-155000000D03*
%TD*%
D19*
%TO.C,U1*%
X109000000Y-137500000D03*
X109000000Y-138000000D03*
X109000000Y-138500000D03*
X109000000Y-139000000D03*
X109000000Y-139500000D03*
X109000000Y-140000000D03*
X109000000Y-140500000D03*
X109000000Y-141000000D03*
X109000000Y-141500000D03*
X109000000Y-142000000D03*
X109000000Y-142500000D03*
X109000000Y-143000000D03*
X109000000Y-143500000D03*
X109000000Y-144000000D03*
X109000000Y-144500000D03*
X109000000Y-145000000D03*
D20*
X110912500Y-146912500D03*
X111412500Y-146912500D03*
X111912500Y-146912500D03*
X112412500Y-146912500D03*
X112912500Y-146912500D03*
X113412500Y-146912500D03*
X113912500Y-146912500D03*
X114412500Y-146912500D03*
X114912500Y-146912500D03*
X115412500Y-146912500D03*
X115912500Y-146912500D03*
X116412500Y-146912500D03*
X116912500Y-146912500D03*
X117412500Y-146912500D03*
X117912500Y-146912500D03*
X118412500Y-146912500D03*
D19*
X120325000Y-145000000D03*
X120325000Y-144500000D03*
X120325000Y-144000000D03*
X120325000Y-143500000D03*
X120325000Y-143000000D03*
X120325000Y-142500000D03*
X120325000Y-142000000D03*
X120325000Y-141500000D03*
X120325000Y-141000000D03*
X120325000Y-140500000D03*
X120325000Y-140000000D03*
X120325000Y-139500000D03*
X120325000Y-139000000D03*
X120325000Y-138500000D03*
X120325000Y-138000000D03*
X120325000Y-137500000D03*
D20*
X118412500Y-135587500D03*
X117912500Y-135587500D03*
X117412500Y-135587500D03*
X116912500Y-135587500D03*
X116412500Y-135587500D03*
X115912500Y-135587500D03*
X115412500Y-135587500D03*
X114912500Y-135587500D03*
X114412500Y-135587500D03*
X113912500Y-135587500D03*
X113412500Y-135587500D03*
X112912500Y-135587500D03*
X112412500Y-135587500D03*
X111912500Y-135587500D03*
X111412500Y-135587500D03*
X110912500Y-135587500D03*
%TD*%
D12*
%TO.C,R8*%
X85490000Y-161000000D03*
X86510000Y-161000000D03*
%TD*%
%TO.C,R10*%
X85500000Y-152000000D03*
X86520000Y-152000000D03*
%TD*%
D11*
%TO.C,C14*%
X115020000Y-151500000D03*
X115980000Y-151500000D03*
%TD*%
D12*
%TO.C,R21*%
X85490000Y-131000000D03*
X86510000Y-131000000D03*
%TD*%
D13*
%TO.C,C11*%
X117000000Y-128960000D03*
X117000000Y-128000000D03*
%TD*%
D14*
%TO.C,C12*%
X110480000Y-124500000D03*
X109520000Y-124500000D03*
%TD*%
D13*
%TO.C,C15*%
X99500000Y-144460000D03*
X99500000Y-143500000D03*
%TD*%
D12*
%TO.C,R2*%
X145990000Y-140500000D03*
X147010000Y-140500000D03*
%TD*%
%TO.C,R15*%
X85500000Y-143000000D03*
X86520000Y-143000000D03*
%TD*%
%TO.C,R23*%
X85490000Y-119000000D03*
X86510000Y-119000000D03*
%TD*%
%TO.C,R19*%
X85480000Y-116000000D03*
X86500000Y-116000000D03*
%TD*%
%TO.C,R9*%
X85510000Y-158000000D03*
X86530000Y-158000000D03*
%TD*%
M02*
